<svg xmlns="http://www.w3.org/2000/svg" viewBox="0 0 512 512" style="enable-background:new 0 0 512 512" xml:space="preserve"><path style="fill:#103b9b" d="M469.06 421.16H42.94a34.68 34.68 0 0 1-34.68-34.68V125.52a34.68 34.68 0 0 1 34.68-34.68h426.12a34.68 34.68 0 0 1 34.68 34.68v260.96a34.68 34.68 0 0 1-34.68 34.68z"/><path style="fill:#fff" d="M467.96 90.84h-44.61L256 202.4 88.65 90.84H39.27a31.01 31.01 0 0 0-31.01 31.01v22.58L175.6 256 8.26 367.57v18.9a34.68 34.68 0 0 0 34.68 34.7h45.71L256 309.58l167.35 111.57h46.8a33.58 33.58 0 0 0 33.6-33.58v-20.01L336.38 256l167.35-111.57v-17.8a35.79 35.79 0 0 0-35.78-35.8z"/><path style="fill:#ed1f34" d="M20.82 412.79a35.27 35.27 0 0 0 22.85 8.37h18.18l220.95-147.3L491.18 412.8l12.55-26.57v-.04L282.49 238.34l208.7-139.13a35.27 35.27 0 0 0-22.87-8.37h-18.18l-220.93 147.3L20.81 99.21a35.33 35.33 0 0 0-12.55 27.05v.33l220.66 147.46L20.82 412.8z"/><path style="fill:#121b21" d="M229.21 246.4c-1.6 0-3.19-.46-4.58-1.39L16.23 106.08a8.26 8.26 0 0 1 9.17-13.74l203.8 135.88L445.57 83.97a8.26 8.26 0 1 1 9.16 13.74l-220.94 147.3a8.25 8.25 0 0 1-4.58 1.4zm274.52 148.05a8.2 8.2 0 0 1-4.58-1.4L277.9 245.22a8.26 8.26 0 0 1 0-13.74L486.6 92.34a8.26 8.26 0 0 1 9.16 13.74l-198.4 132.27 210.97 140.98a8.26 8.26 0 0 1-4.6 15.12zM61.86 429.42a8.25 8.25 0 0 1-4.59-15.13l220.94-147.3a8.26 8.26 0 0 1 9.17 0l208.38 138.93a8.26 8.26 0 0 1-9.16 13.74L282.8 283.79 66.43 428.03c-1.4.94-3 1.39-4.57 1.39zm-41.04-8.37a8.25 8.25 0 0 1-4.58-15.13l197.8-131.88L3.67 133.47a8.26 8.26 0 1 1 9.18-13.73L233.5 267.19a8.26 8.26 0 0 1 0 13.73L25.4 419.66c-1.4.94-3 1.39-4.57 1.39z"/><path style="fill:#fff" d="M503.74 211.41H300.59V90.84h-89.18v120.57H8.26v89.18h203.15v120.57h89.18V300.59h203.15z"/><path style="fill:#ed1f34" d="M503.74 232.05H279.95V90.84h-47.9v141.21H8.26v47.9h223.79v141.21h47.9V279.95h223.79z"/><path style="fill:#121b21" d="M468.32 82.58H43.68A43.72 43.72 0 0 0 0 126.26v259.48a43.73 43.73 0 0 0 43.68 43.68h424.64A43.72 43.72 0 0 0 512 385.74V126.26a43.72 43.72 0 0 0-43.68-43.68zm27.16 43.68v97.53H288.21V99.1h180.11a27.19 27.19 0 0 1 27.16 27.17zM43.68 99.1h180.11v124.7H16.52v-97.54A27.19 27.19 0 0 1 43.68 99.1zM16.52 385.74v-97.53h207.27v124.7H43.68a27.2 27.2 0 0 1-27.16-27.17zm451.8 27.16H288.21V288.2h149.47a8.26 8.26 0 1 0 0-16.51H279.95a8.26 8.26 0 0 0-8.26 8.26V412.9h-31.38V279.95c0-4.56-3.7-8.26-8.26-8.26H16.52v-31.38h215.53c4.56 0 8.26-3.7 8.26-8.26V99.1h31.38v132.95c0 4.56 3.7 8.26 8.26 8.26h215.53v31.38h-24.77a8.26 8.26 0 1 0 0 16.52h24.77v97.53a27.2 27.2 0 0 1-27.16 27.16z"/></svg>