<svg width="380" height="380" viewBox="-62 0 380 380" xmlns="http://www.w3.org/2000/svg" preserveAspectRatio="xMidYMid"><path d="M255.85 364.17c0 8.58-57.26 15.53-127.9 15.53-70.63 0-127.9-6.95-127.9-15.53 0-8.58 67.18-15.53 127.9-15.53 72.29 0 127.9 6.95 127.9 15.53" fill="#1A4658"/><path d="M247.93 252.1c-3.96 0-8.22-1.82-11.27-15.83-3.04-14-7.61-28.32-7.61-28.32 4.87 0 7.61-2.13 7.61-2.13-3.35-1.52-10.66-6.7-15.53-13.1-4.87-6.39-17.36-16.74-17.36-16.74v-20.7c0-14.01 8.99-24.98 8.99-24.98-6.1 0-8.99 5.48-8.99 5.48v-29.53c0-29.24 14.77-42.33 14.77-42.33-4.57-.3-7.61 1.83-7.61 1.83 2.13-21.62 8.76-28.02 8.76-28.02-24.37-6.4-37.95 7.92-37.95 7.92-2.75-13.1 7.97-20.71 7.97-20.71-12.48-2.74-22.81.91-22.81.91 0-19.18 7.63-25.58 7.63-25.58-38.07 0-59.68 28.62-59.68 28.62-1.52-12.18 1.83-22.85 1.83-22.85-36.85 15.53-46.59 49.93-46.59 49.93-2.43-5.79-2.74-18.92-2.74-18.92S52.13 62.55 49.4 80.2c-2.74 17.66 2.43 68.36 2.43 68.36s-2.43-3.04-7.61-3.65c0 0 5.48 6.1 5.48 19.8 0 0-2.13-1.83-5.78-.92 0 0 5.78 5.18 6.39 14 0 0-6.7 4.58-10.35 9.14 0 0-5.79.3-8.83 1.22 0 0 4.87 2.74 5.78 5.18 0 0-14.31 14.61-21.62 26.49 0 0 6.4-3.96 10.96-2.74 0 0-10.05 12.18-13.4 32.28 0 0 4.88-2.44 7-1.22 0 0-6.08 12.79-6.39 26.19l-6.7 3.96 5.18 3.65s-3.96 16.45-4.87 25.88c0 0 3.04-3.04 5.48-3.95 0 0 3.35 7.91 7.92 14 4.57 6.1 14.92 11.27 21 11.27l11.46-.45c-1.42 6.13-4.22 11.33-10.13 11.6l-.65 1.05-.37-.02c-.11 1.79-3.72 2.11-4.72 3.35-3.01 3.77-5.32 8.94-6.85 13.55-1.12 3.38-.6 3.38-1.37 6.85-.25 1.14-1.43 2.35-1.83 3.5 3.3-1.1 12.4-1.84 17.2-2.19l.09 4.25s.79.74 2.1 1.27l.14-.02c.45.04.88.1 1.3.2 7.2-.64 12.21.58 20.56-.11 1.63-.2 3.15-.43 4.57-1.24.4-1.2.46-1.28.65-2.84.04-.28.04-.56.1-.9a18.17 18.17 0 0 1 .7-.1c.03-.01.06-.03.1-.03l.4-.04c.09-.03.17-.04.25-.02 1.51-.13 3.94-.26 5.45-.34 4.9-.01 11.37.55 11.37.55.4-5.5.8-14.04 9.7-38.94l2.21-1.37s27.36 9.64 52.75-.38c2 4.94 8.5 21.56 9.53 32.03.87 1.23.77 2.79.8 4.44.03 1.4.14 2.8.18 4.19.91-.13 4.21-.53 8.37-.52 1.51.08 3.94.2 5.45.34a.41.41 0 0 1 .25.02l.4.04c.04 0 .07.02.1.03a18.8 18.8 0 0 1 .68.1c.08.34.08.62.12.9.19 1.56.24 1.64.65 2.84.13.08.26.14.4.2 4.54-.57 9.14-.67 13.72-.46 3.6.17 7.13.85 10.67 1.5v.1l1.06.08c1.9.34 3.8.66 5.72.86.04-2.4.02-4.5-.03-6.33 3.82.18 9.34.94 11.65 1.28.92.22 1.67.35 2.45.52l.32.1-.02-.03c.79.17 1.64.4 2.76.79-.17-2.06-.16-2.02-.43-4.6-.21-2-1.64-8.07-4.32-10.57 0 0 2.92 1.26 3.8 1.76-2.87-3.9-4.27-9.47-13.31-13.32 0 0 1.65-.78 3.16-.97-1.58-.97-2.78-1.36-4.38-1.24.54-1.54 2.93-5.43 4.93-5.93 0 0-1.23-.85-3.24-.2-.75.4-1.47.82-2.18 1.32-.26.18-.65-.01-.73-.3a66.31 66.31 0 0 1-1.42-7.1c18.22-.66 20.78-10.01 20.78-10.01 1.52 1.22 1.52 3.96 1.52 3.96 7.92-10.36 7-20.71 7-20.71a8.28 8.28 0 0 1 3.36 1.52c.91-15.83-3.96-42.93-3.96-42.93 2.43 1.21 3.96-.3 3.96-.3-2.74-1.23-3.05-4.27-3.05-4.27 3.96.3 4.57-3.35 4.57-3.35" fill="#EDF7FA"/><path d="M73.72 367s.71-7.7-1.8-13.26c0 0 4.76.32 5.56 12.88 0 0-3.33.4-3.76.38m-23.88-25.97.03-.24c.02.12.02.2-.03.24m4.46 25.37h-.05l.06-.15-.01.15" fill="#CDE9EE"/><path d="M114.85 28.9a60.1 60.1 0 0 1 1.83-22.86C79.84 21.57 70.1 55.97 70.1 55.97c-2.43-5.79-2.74-18.92-2.74-18.92S52.13 62.55 49.4 80.2c-2.74 17.66 2.43 68.36 2.43 68.36s-2.43-3.04-7.61-3.65c0 0 5.48 6.1 5.48 19.8 0 0-2.13-1.83-5.78-.92 0 0 5.78 5.18 6.39 14 0 0-6.7 4.58-10.35 9.14 0 0-5.79.3-8.83 1.22 0 0 4.87 2.74 5.78 5.18 0 0-14.31 14.61-21.62 26.49 0 0 6.4-3.96 10.96-2.74 0 0-10.05 12.18-13.4 32.28 0 0 4.88-2.44 7-1.22 0 0-6.08 12.79-6.39 26.19l-6.7 3.96 5.18 3.65s-3.96 16.45-4.87 25.88c0 0 3.04-3.04 5.48-3.95 0 0 3.35 7.91 7.92 14 4.57 6.1 14.92 11.27 21 11.27l.78-.1c-.34 2.1-.72 4.19-1.28 6.25-.08.29-.47.48-.73.3-.7-.5-1.43-.92-2.18-1.31-2.01-.66-3.24.19-3.24.19 2 .5 4.39 4.39 4.93 5.93-1.6-.12-2.8.27-4.38 1.24 1.51.2 3.16.97 3.16.97-9.04 3.85-10.44 9.42-13.32 13.32.9-.5 3.81-1.76 3.81-1.76-2.68 2.5-4.1 8.57-4.32 10.57-.27 2.58-.26 2.54-.43 4.6 2.4-.84 3.57-.92 5.5-1.38 3-.44 11.38-1.59 14.46-1.27l-.48 5.92h.15c1.58-.46 2.87-.4 4.28-.55.02-1.63.1-3.26.24-4.88-.1-2.78.25-5.31.81-8.13l.07-.29a17.29 17.29 0 0 1 4.32-7.39 8.2 8.2 0 0 0 1.1-1.52c.75-1 1.53-2.31 2.14-3.96 1.25-3.42.71-10.92-1.8-18.25 2.65 3.82 5.07 7.17 6.21 8.31l-.07-9.32s4.87 4.87 9.23 8.55c2.1 1.83 4.69 4.21 6.53 5.16.13.09.25-.8.4.54.01 0 .03-.27.05-.26 2.47 1.39 5.01 2.49 7.39 4.03.25.16.51.24.76.42 1.1.75 3.04 1.6 4.78 2.51l1.65 19.45c1.48-20.44 13.13-40.01 13.13-40.01l-.42-.13c-3.6-1.12-29.98-10.24-45.56-42.82-1.03-2.14 5.79 2.44 5.79 2.44-6.4-15.53-8.84-40.5-8.84-40.5a9.26 9.26 0 0 0 4.27 2.13c-4.57-12.79-6.4-28.62-6.4-42.94-1.21-77.04 27.26-94.7 27.26-94.7-4.87-1.83-10.05-1.67-10.05-1.67C76.79 95.28 95.52 76.4 95.52 76.4c-5.03.31-24.67 5.64-24.67 5.64 16.3-42.48 32.74-53.75 32.74-53.75-1.22 10.2 2.74 21.01 2.74 21.01 35.32-43.7 63.7-41.66 63.7-41.66 2.11-4.38 4.5-7.37 4.5-7.37-38.06 0-59.68 28.62-59.68 28.62m99.85 337.87s-.35-11.04-2.86-16.6c0 0 6.55 4.04 6.51 16.79l-3.65-.2" fill="#CDE9EE"/><path d="M44.36 309.98c4.3-42.24 5.48-124.86 5.48-124.86-9.36 18.5-16.9 52.07-16.9 52.07l1.83 7.3-4.11-1.82c-6.6 22.93-2.14 53.62-.66 62.27 4.2 3.33 9.21 4.45 14.36 5.04m-8.84-.91a666.6 666.6 0 0 0 4.27 19.98c1.15.18 2.43.09 2.43.09 1.05-4.08 1.22-10.4 2.04-18.18-3-.35-5.95-.88-8.74-1.89" fill="#ABD8D7"/><path d="M178.63 345.47a.45.45 0 0 1-.53-.21l-1.08.24c6.28-4.57 6.86-9.4 6.86-9.4a37.86 37.86 0 0 1-10.74 2.82c14.52-12.58 16.93-35.96 16.93-35.96-5.95 7.3-14.39 13.47-20.91 17.62l.01-.03s-4.37 2.44-8.4 4.34a.46.46 0 0 0-.5.23c-2.07.96-4 1.75-5.14 1.94 0 0 3.36 6.2 4.77 9.56l-.28.22s4.87 11.5 6.64 22.64c.18 1.88.33 3.53.43 4.8.08 1.62.2 2.74.2 2.74 6.43-.95 15.52-.02 15.52-.02a22.8 22.8 0 0 0 .64 4.02c3.05-.41 6.14-.6 9.22-.62-.04-10.8-.52-28.74-13.64-24.93" fill="#CDE9EE"/><path d="M44.02 313.24c-10.09-1.7-19.24-13.3-19.24-13.3a29.53 29.53 0 0 0 16.5 8.87c1.22-8.93-6.17-29.38-6.17-29.38 5.47 6.81 8.46 14.69 10.1 21.13L44 313.24" fill="#83BAC0"/><path d="M66.91 297.42s7.94 14 14.9 20.04c7.52 6.54 14.5 15.76 17.48 21.36 0 0 3.77-8.76 5.82-11.8 0 0-22.27-6.53-38.2-29.6M170.5 324.7c1.1-1.55 2.37-2.99 3.58-4.46 1.97-2.42 4.23-4.77 5.89-7.4-2.87 2.14-6.05 4-9.31 5.96-9.46 6.4-16.05 8.22-16.05 8.22 2.06 3.04 5.83 11.8 5.83 11.8 1.8-3.39 5.07-8.1 9.04-12.75.33-.46.7-.9 1.02-1.36" fill="#ABD8D7"/><path d="M63.9 89.1c-.86.07-3.63.14-3.63.14C35.16 91 16.7 71.54 16.7 71.54s-1.65 15.19 9.25 28.5c10.91 13.3 33.02 15.58 33.02 15.58.72 3.11-.84 10.05-.84 10.05s6.47-7.15 8.1-20.7c1.16-9.5-1.8-15.9-2.34-15.86" fill="#545352"/><path d="M63.9 89.1c-.83.06-3.63.14-3.63.14C35.16 91 16.7 71.54 16.7 71.54s11.47 33.2 49.77 30.57c0 0 1.06-6.14-2.58-13" fill="#6E7979"/><path d="M189.26 89.1c.86.07 3.63.14 3.63.14 25.11 1.75 43.56-17.7 43.56-17.7s1.65 15.19-9.25 28.5c-10.91 13.3-33.02 15.58-33.02 15.58-.72 3.11.84 10.05.84 10.05s-6.47-7.15-8.1-20.7c-1.16-9.5 1.8-15.9 2.34-15.86" fill="#545352"/><path d="M189.26 89.1c.83.06 3.63.14 3.63.14 25.11 1.75 43.56-17.7 43.56-17.7s-11.47 33.2-49.77 30.57c0 0-1.06-6.14 2.58-13" fill="#6E7979"/><path d="M50.8 201.56s-18.05 64.86 0 106.43V201.56m179.7 102.6c-8.91 6.8-18.18 7.23-18.18 7.23-.41-8.88 9.3-28.3 9.3-28.3a21.1 21.1 0 0 0-5.45 4.61l-.06-6.51 7-5.79-5.63-4.56 7.15-28.78-6.85 4.57s-2.13-40.96-.6-58.62c0 0-8.69-8.68-12.95-12.18 0 0 .8 12.6 1.73 32.76 3.89 16.16 9.93 49.6 2.41 79.03.09 5.96.15 12.01.19 18.13 0 0 3.74 13 4.96 22.14 0 0 1.22.35 3.04.04l-.13-13.99a27.62 27.62 0 0 0 14.07-9.78m-84.43-125.59c0 6.91 4.43 12.52 9.9 12.52 5.46 0 9.9-5.6 9.9-12.52s-4.44-12.53-9.9-12.53c-5.47 0-9.9 5.6-9.9 12.53" fill="#CDE9EE"/><path d="M146.37 175.22c0 6.81 4.37 12.33 9.75 12.33s9.74-5.52 9.74-12.33c0-6.81-4.36-12.33-9.74-12.33s-9.75 5.52-9.75 12.33" fill="#FFF"/><path d="M153.53 168.86c-.08.3-.13.62-.13.95 0 1.74 1.13 3.15 2.53 3.15 1.24 0 2.27-1.12 2.48-2.58a6.6 6.6 0 0 1 1.29 4c0 3.22-2.1 5.83-4.69 5.83-2.58 0-4.68-2.61-4.68-5.83 0-2.57 1.34-4.75 3.2-5.52" fill="#474746"/><path d="M98.56 178.57c0 6.91 4.43 12.52 9.9 12.52 5.47 0 9.9-5.6 9.9-12.52s-4.43-12.53-9.9-12.53c-5.47 0-9.9 5.6-9.9 12.53" fill="#CDE9EE"/><path d="M98.87 175.22c0 6.81 4.36 12.33 9.74 12.33 5.39 0 9.75-5.52 9.75-12.33 0-6.81-4.36-12.33-9.75-12.33-5.38 0-9.74 5.52-9.74 12.33" fill="#FFF"/><path d="M107.85 168.86c-.07.3-.13.62-.13.95 0 1.74 1.13 3.15 2.53 3.15 1.24 0 2.27-1.12 2.48-2.58a6.6 6.6 0 0 1 1.29 4c0 3.22-2.1 5.83-4.68 5.83-2.59 0-4.68-2.61-4.68-5.83 0-2.57 1.34-4.75 3.2-5.52" fill="#474746"/><path d="M181.73 188.4c-.62 1.86-2.73 2.36-8.74 3.52l-.4.08c-5.9 1.13-16.42.98-22.18.14l-.72-.11c-5.34-.9-5.95-1.6-7.67-4.37-1.78-2.86-2.87-11.28-3.07-12.94v-.08c-.22-1.75-.33-2.63 1.93-3.64 3.03-1.36 16.48-3.26 21.99-3.5 4.35-.2 13.57.4 17.8 1.02.65.1 1.14.2 1.45.27.48.13 2.27 1 2.18 2.9-.12 2.5-1.73 14.18-2.57 16.7Zm-58.67-13.76v.08c-.2 1.66-1.3 10.08-3.07 12.94-1.72 2.77-2.33 3.47-7.67 4.37l-.72.11c-5.76.84-16.29.99-22.18-.14l-.4-.08c-6.01-1.16-8.12-1.66-8.74-3.53-.84-2.52-2.45-14.2-2.57-16.7-.1-1.9 1.7-2.77 2.18-2.9.3-.08.8-.17 1.45-.27 4.22-.61 13.44-1.22 17.8-1.03 5.5.25 18.96 2.15 21.99 3.5 2.25 1.02 2.15 1.9 1.93 3.65Zm66.38-11.12a112.43 112.43 0 0 0-21.36-.9c-12.03.62-22.34 2.29-28.5 3.29-1.84.3-3.28.53-4.38.68l-1.2.16c-1.36.18-2.24.3-3 .34-.75-.04-1.64-.16-2.99-.34l-1.2-.16c-1.1-.15-2.55-.39-4.39-.68-6.15-1-16.46-2.67-28.5-3.3-9.24-.46-16.94.27-21.36.91 0 0-4.7.6-8.74 2.3l.77 5.13s4.26-1.02 8.41-1.57c.78 7.22 2.28 16.5 2.28 16.5l.02.28.34 1.42c.86 3.65 1.7 5.79 5.13 7.08 3.36 1.26 11.3 2.44 19.32 2.85 2.98.16 6.37-.03 9.79-.53 5.08-.74 9.67-2.1 11.42-3.4 2.55-1.89 3.92-6.63 4.82-9.77l.27-.93c.32-1.07.6-2.2.87-3.28.38-1.57.78-3.19 1.12-3.75.06-.1.35-.43 1.46-.6a9.05 9.05 0 0 1 2.32 0c1.12.17 1.4.5 1.47.6.33.56.73 2.18 1.12 3.75.27 1.09.54 2.21.86 3.28l.27.93c.9 3.14 2.27 7.88 4.83 9.77 1.75 1.3 6.34 2.66 11.41 3.4 3.43.5 6.81.69 9.8.53 8-.41 15.96-1.59 19.32-2.85 3.42-1.29 4.27-3.43 5.12-7.08l.34-1.42.02-.29s1.5-9.27 2.28-16.5c4.16.56 8.41 1.58 8.41 1.58l.77-5.12a38.33 38.33 0 0 0-8.74-2.3Z" fill="#545352"/><path d="M111.52 150.56s-11.01-5.25-17.31 4.5c0 0-.65-9.7 8.24-10.78s9.07 6.28 9.07 6.28m-4.13-14.24s-10.2-4.82-14.86 4.44c0 0-1.52-8.1 5.77-10.04 7.28-1.96 9.09 5.6 9.09 5.6m43.56 20.18s8.55-4.07 13.44 3.5c0 0 .5-7.53-6.4-8.37-6.9-.85-7.04 4.87-7.04 4.87m6.08-13.48s8.65-1.4 10.13 6.5c0 0 2.87-5.7-2.14-8.72-5.02-3.03-8 2.22-8 2.22" fill="#A0D1DE"/><path d="M110.75 227.35s6.04-4.05 9.6-4.61c0 0 .78 7.66 4.33 11.43 0 0 7.64-6.9 15.2-7.38 0 0 1.95 4.2 5.12 5.76l-.01.05a13.2 13.2 0 0 0 3.9 1.73s4.34-2.62 5.6-7.42c0 0 .41 10.13-5.95 15.64 0 0-4.84-2.36-8.33-6.15a15.84 15.84 0 0 1-2.67-3.17s-11.22 7.93-11.63 12.45c0 0-8.09-7.89-10.85-13.97 0 0-5.4 1.7-6.9 2.8 0 0-4.34-7.1-5.22-13.5 0 0 5.22 4.98 7.81 6.34" fill="#B2DCE5"/><path d="M131.13 207.45c-.45-.1 11.38.82 22.98.4 0 0 .62-2.2 1.51-3.42 0 0-.19 3.73.85 4.49 0 0-5.8 2.28-11.66 2.27 0 0 6.38-1.07 8.52-2.17 0 0-11.65.65-22.2-1.57" fill="#545352"/></svg>