<svg viewBox="0 0 256 283" xmlns="http://www.w3.org/2000/svg" preserveAspectRatio="xMidYMid"><path d="M240 139a26 26 0 0 0-29-26L247 6H93l37 107h-2a26 26 0 0 0-8 51 115 115 0 0 1-58 49c-16-8-23-26-16-42l2-6a26 26 0 1 0-21-4c-7 15-16 30-19 48-4 22 0 45 18 58 44 30 91-19 141-31 18-5 37-4 53-13 12-7 20-19 22-31 2-13-1-26-8-36 4-4 6-10 6-17Zm-86 0c0-9-5-18-12-22l28-58 29 58c-7 5-12 13-12 22v1l-33-1Z" fill="#C63D14"/><path d="M246 139c0-16-11-29-26-32L256 0H84l37 107a33 33 0 0 0-10 60 110 110 0 0 1-48 39c-12-7-17-21-12-33l1-1 1-2a33 33 0 1 0-34-7l-4 7c-5 11-11 24-14 38-4 29 3 51 22 64 11 8 22 11 34 11 21 0 43-11 64-22 16-7 31-15 47-19l18-3c13-2 26-4 37-11a51 51 0 0 0 19-72c3-5 4-11 4-17Zm-12 0a20 20 0 1 1-40 0 20 20 0 0 1 40 0Zm4-126-32 94-4 2-32-65-31 64-5-1-32-94h136ZM128 119a20 20 0 1 1 0 40 20 20 0 0 1 0-40Zm-86 1a20 20 0 1 1 0 39 20 20 0 0 1 0-39Zm194 71c-2 11-9 20-19 26-9 6-21 7-33 9l-19 3c-17 5-33 13-49 21-32 16-60 29-86 11-19-13-18-37-16-51a129 129 0 0 1 16-40l8 2c-5 18 3 38 21 47l3 1 3-1c14-5 27-13 39-24 7-7 14-15 19-23a33 33 0 0 0 38-33c0-10-5-18-11-24l20-42 21 43a33 33 0 0 0 41 50c4 8 5 16 4 25Z" fill="#FFF"/></svg>