<svg xmlns="http://www.w3.org/2000/svg" viewBox="0 0 503.6 503.6" style="enable-background:new 0 0 503.607 503.607" xml:space="preserve"><path d="M394 369a25 25 0 1 0 1 51 25 25 0 0 0-1-51z"/><path d="m497 377-12-3c-6-1-10-5-13-10-2-5-1-11 2-16l8-10c3-4 2-8-1-11l-16-17c-3-2-8-3-11-1l-10 7c-5 4-11 4-16 2s-9-7-10-13l-2-13c0-4-4-7-8-7h-23c-4 0-8 3-8 7l-3 16c-2 5-5 10-10 12-6 2-11 2-16-2l-13-9c-4-2-8-1-11 1l-16 17c-3 3-4 7-1 11l8 10c3 5 4 11 2 16-3 5-7 9-13 10l-12 3c-4 0-7 4-7 8v23c0 4 3 8 7 8l13 2c6 1 11 5 13 10s2 11-2 16l-7 10c-2 3-1 8 1 11l17 16c3 3 7 4 11 1l10-8c5-3 11-4 16-2 5 3 9 7 10 13l3 12c0 4 4 7 8 7h23c4 0 8-3 8-8l2-8c1-6 4-11 10-13 5-2 11-2 16 2l7 5c4 3 8 2 11-1l16-16c3-3 4-8 2-11l-7-10c-4-5-4-11-2-16s7-9 13-10l12-2c5 0 8-4 8-8v-23c0-4-3-8-7-8zm-103 59a42 42 0 1 1 1-84 42 42 0 0 1-1 84zM210 42a17 17 0 1 0 0 34 17 17 0 0 0 0-34zm-76 0a17 17 0 1 0 0 34 17 17 0 0 0 0-34zm-75 0a17 17 0 1 0 0 34 17 17 0 0 0 0-34z"/><path d="M480 0H24C11 0 0 11 0 24v77h504V24c0-13-11-24-24-24zM59 92a34 34 0 1 1 0-67 34 34 0 0 1 0 67zm75 0a34 34 0 1 1 0-67 34 34 0 0 1 0 67zm76 0a34 34 0 1 1 0-67 34 34 0 0 1 0 67zM0 477c0 15 12 27 27 27h334l-1-4-2-12-10 8a25 25 0 0 1-33-3l-16-16c-9-9-10-22-3-32l6-10-12-2c-12-2-21-12-21-25v-23c0-12 8-23 20-25l12-2-8-10c-7-10-6-24 3-33l16-16a25 25 0 0 1 32-3l13 9 3-16c2-12 13-20 25-20h23c13 0 23 9 25 21l2 13 10-7a25 25 0 0 1 32 3l16 16c9 9 10 23 3 33l-8 10 12 2 4 1V118H0v359zm176-32h-17a8 8 0 1 1 0-17h17a8 8 0 1 1 0 17zm-17-218h17a8 8 0 1 1 0 16h-17a8 8 0 1 1 0-16zm-67-17a8 8 0 1 1 0-17h118a8 8 0 1 1 0 17H92zm118 84a8 8 0 1 1 0 17H92a8 8 0 1 1 0-17h118zm-17 67h42a8 8 0 1 1 0 17h-42a8 8 0 1 1 0-17zm-34-34h17a8 8 0 1 1 0 17h-17a8 8 0 1 1 0-17zm51 67a8 8 0 1 1 0 17H92a8 8 0 1 1 0-17h118zm42 51h-42a8 8 0 1 1 0-17h42a8 8 0 1 1 0 17zm17-101h-59a8 8 0 1 1 0-17h59a8 8 0 1 1 0 17zm8-33h-34a8 8 0 1 1 0-17h34a8 8 0 1 1 0 17zm0-34h-84a8 8 0 1 1 0-17h84a8 8 0 1 1 0 17zm50-34H210a8 8 0 1 1 0-16h117a8 8 0 1 1 0 16zm51-42c0 5-4 9-9 9H243a8 8 0 1 1 0-17h126c5 0 9 4 9 8zm-67-42h16a8 8 0 1 1 0 17h-16a8 8 0 1 1 0-17zm-118 0h84a8 8 0 1 1 0 17h-84a8 8 0 1 1 0-17zm-143 0h109a8 8 0 1 1 0 17H50a8 8 0 1 1 0-17zm0 34h9a8 8 0 1 1 0 17h-9a8 8 0 1 1 0-17zm0 34h76a8 8 0 1 1 0 16H50a8 8 0 1 1 0-16zm0 33h109a8 8 0 1 1 0 17H50a8 8 0 1 1 0-17zm0 34h9a8 8 0 1 1 0 17h-9a8 8 0 1 1 0-17zm0 33h76a8 8 0 1 1 0 17H50a8 8 0 1 1 0-17zm0 34h109a8 8 0 1 1 0 17H50a8 8 0 1 1 0-17zm0 33h9a8 8 0 1 1 0 17h-9a8 8 0 1 1 0-17zm0 34h76a8 8 0 1 1 0 17H50a8 8 0 1 1 0-17z"/></svg>