<svg xmlns="http://www.w3.org/2000/svg" viewBox="0 0 491.9 491.9" style="enable-background:new 0 0 491.86 491.86" xml:space="preserve"><path style="fill:#010002" d="M250 206H0v26h21v244h177V232h52z"/><path style="fill:#010002" d="M380 327c33 1 51-8 54-34l13-119c3-23-15-40-32-46h-1l-12-3h-12c-13 2-27 12-27 12-25 18-65 22-117 11a24 24 0 1 0-10 48c22 4 43 7 62 7 17 0 32-2 46-6v2l-8 76c-44 1-72 10-83 27-15 22-39 113-46 141a27 27 0 0 0 52 13c13-49 30-100 37-116 7-14 49-15 84-13z"/><circle style="fill:#010002" cx="395.9" cy="67.8" r="54.3"/><path style="fill:#010002" d="m485 275 7-94a2 2 0 0 0-2-2h-30l-2 2-6 94c-1 28-10 64-58 64h-54a2 2 0 0 0-2 2v29l2 2h49v66h-15c-20 0-37 18-37 38l2 2h19l2-2c0-7 6-14 14-14h63c7 0 14 7 14 14 0 1 0 2 2 2h19l2-2c0-20-17-38-37-38h-15v-70c47-1 58-49 63-93zm-281-98h-92L81 63l-2-1-17 5a1 1 0 0 0-1 2l35 127 2 1h106l1-1v-17l-1-2z"/></svg>