<svg xmlns="http://www.w3.org/2000/svg" viewBox="0 0 347.87 347.87" style="enable-background:new 0 0 347.873 347.873" xml:space="preserve"><path d="M64.15 76.6h219.58v34.25H64.15zM64.15 136.39H214.2v80.22H64.15zM242.93 136.39h40.8v80.22h-40.8z"/><path d="M337.87 33.94H10a10 10 0 0 0-10 10v210.39a10 10 0 0 0 10 10h114.98c-4.4 21.48-14.6 32.57-14.68 32.65a10 10 0 0 0 7.19 16.96h112.9a10 10 0 0 0 7.18-16.96c-.12-.12-10.28-11.17-14.68-32.65h114.98a10 10 0 0 0 10-10V43.93a10 10 0 0 0-10-10zm-10 210.39h-16.3v-2.82a10 10 0 1 0-20 0v2.82h-10.45v-2.82a10 10 0 1 0-20 0v2.82H20V53.93h307.87v190.4z"/></svg>