<svg xmlns="http://www.w3.org/2000/svg" viewBox="0 0 512 512" style="enable-background:new 0 0 512 512" xml:space="preserve"><path style="fill:#103b9b" d="M8.26 200.95h495.48v110.11H8.26z"/><path style="fill:#fff" d="M468.32 90.84H43.68a35.42 35.42 0 0 0-35.42 35.42v74.69h495.48v-74.7a35.42 35.42 0 0 0-35.42-35.41z"/><path style="fill:#ed1f34" d="M8.26 385.74a35.42 35.42 0 0 0 35.42 35.42h424.64a35.42 35.42 0 0 0 35.42-35.42v-74.69H8.26v74.7z"/><path style="fill:#121b21" d="M468.32 82.58H43.68A43.73 43.73 0 0 0 0 126.26v259.48a43.73 43.73 0 0 0 43.68 43.68h424.64A43.73 43.73 0 0 0 512 385.74V126.26a43.72 43.72 0 0 0-43.68-43.68zM43.68 99.1h424.64a27.19 27.19 0 0 1 27.16 27.16v66.43H16.52v-66.43A27.19 27.19 0 0 1 43.68 99.1zm424.64 313.8H43.68a27.19 27.19 0 0 1-27.16-27.16v-66.43h388.13a8.26 8.26 0 1 0 0-16.51H16.51v-93.6h478.96v93.6h-57.8a8.26 8.26 0 1 0 0 16.51h57.8v66.43a27.19 27.19 0 0 1-27.16 27.16z"/></svg>