<svg xmlns="http://www.w3.org/2000/svg" viewBox="0 0 512 512" style="enable-background:new 0 0 512 512" xml:space="preserve"><path style="fill:#103b9b" d="M8 201h496v110H8z"/><path style="fill:#fff" d="M468 91H44c-20 0-36 16-36 35v75h496v-75c0-19-16-35-36-35z"/><path style="fill:#ed1f34" d="M8 386c0 19 16 35 36 35h424c20 0 36-16 36-35v-75H8v75z"/><path style="fill:#121b21" d="M468 83H44c-24 0-44 19-44 43v260c0 24 20 43 44 43h424c24 0 44-19 44-43V126c0-24-20-43-44-43zM44 99h424c15 0 27 12 27 27v67H17v-67c0-15 12-27 27-27zm424 314H44c-15 0-27-12-27-27v-67h388a8 8 0 1 0 0-16H17v-94h478v94h-57a8 8 0 1 0 0 16h57v67c0 15-12 27-27 27z"/></svg>