<svg xmlns="http://www.w3.org/2000/svg" xmlns:xlink="http://www.w3.org/1999/xlink"><defs><style>.a{fill:none;stroke:#000;stroke-linecap:round;stroke-linejoin:round}</style></defs><symbol id="adaptive" viewBox="0 0 100 100"><path d="M26 21h-6a1.5 1.5 0 0 0 0 3h6a1.5 1.5 0 0 0 0-3Zm14 0h-6a1.5 1.5 0 0 0 0 3h6a1.5 1.5 0 0 0 0-3Z"/><path d="M86.44 27H84v-7.94A5.07 5.07 0 0 0 78.94 14H17.06A5.07 5.07 0 0 0 12 19.06v39.88A5.07 5.07 0 0 0 17.06 64H21v11.44A4.57 4.57 0 0 0 25.56 80h13.88A4.57 4.57 0 0 0 44 75.44V64h7v11.44A4.57 4.57 0 0 0 55.56 80h30.88A4.57 4.57 0 0 0 91 75.44V31.56A4.57 4.57 0 0 0 86.44 27Zm-47 50H25.56A1.57 1.57 0 0 1 24 75.44V45.56A1.57 1.57 0 0 1 25.56 44h13.88A1.57 1.57 0 0 1 41 45.56v29.88A1.57 1.57 0 0 1 39.44 77ZM44 61V45.56A4.57 4.57 0 0 0 39.44 41H25.56A4.57 4.57 0 0 0 21 45.56V61h-3.94A2.06 2.06 0 0 1 15 58.94V19.06A2.06 2.06 0 0 1 17.06 17h61.88A2.06 2.06 0 0 1 81 19.06V27H55.56A4.57 4.57 0 0 0 51 31.56V61Zm44 14.44A1.57 1.57 0 0 1 86.44 77H55.56A1.57 1.57 0 0 1 54 75.44V31.56A1.57 1.57 0 0 1 55.56 30h30.88A1.57 1.57 0 0 1 88 31.56Z"/><circle cx="71" cy="71" r="2.5" transform="rotate(-.2 71.5 71.74)"/></symbol><symbol id="axios" viewBox="0 0 188 28"><g fill="none"><path d="m93.295 3.652-6.939 5.653h4.532V27.68l2.407-1.939V3.652ZM95.295 24.1l7.061-5.795h-4.658V.35l-2.403 1.673V24.1ZM182.695 6.953c.8.416 1.376.768 1.728 1.056l2.496-4.752c-1.248-.768-2.752-1.456-4.512-2.064-1.728-.608-3.6-.912-5.616-.912-1.92 0-3.696.32-5.328.96-1.6.64-2.88 1.584-3.84 2.832-.928 1.248-1.392 2.8-1.392 4.656 0 2.08.656 3.68 1.968 4.8 1.344 1.088 3.392 1.984 6.144 2.688 2.208.576 3.984 1.104 5.328 1.584 1.376.448 2.064 1.2 2.064 2.256 0 1.568-1.472 2.352-4.416 2.352-1.472 0-2.864-.176-4.176-.528-1.312-.352-2.464-.784-3.456-1.296-.96-.512-1.648-.976-2.064-1.392l-2.592 5.04c1.664 1.056 3.568 1.888 5.712 2.496 2.144.608 4.304.912 6.48.912 1.888 0 3.648-.256 5.28-.768 1.632-.544 2.944-1.408 3.936-2.592 1.024-1.216 1.536-2.816 1.536-4.8 0-1.632-.384-2.944-1.152-3.936-.736-1.024-1.808-1.84-3.216-2.448-1.376-.608-3.008-1.152-4.896-1.632-2.144-.512-3.776-.976-4.896-1.392-1.088-.416-1.632-1.12-1.632-2.112 0-1.696 1.504-2.544 4.512-2.544 1.12 0 2.208.16 3.264.48 1.056.288 1.968.64 2.736 1.056Z" fill="#5A29E4"/><path fill-rule="evenodd" clip-rule="evenodd" d="M132.182 27.497c-2.112 0-4.032-.368-5.76-1.104-1.728-.768-3.217-1.792-4.465-3.072a14.22 14.22 0 0 1-2.88-4.416 13.138 13.138 0 0 1-1.008-5.04c0-1.76.352-3.456 1.056-5.088a13.385 13.385 0 0 1 2.977-4.32 14.148 14.148 0 0 1 4.511-3.024c1.728-.736 3.616-1.104 5.664-1.104 2.112 0 4.033.4 5.761 1.2 1.728.768 3.2 1.808 4.416 3.12a13.649 13.649 0 0 1 2.879 4.368 13.003 13.003 0 0 1 1.009 4.992c0 1.76-.352 3.456-1.056 5.088a14.11 14.11 0 0 1-2.977 4.32c-1.248 1.248-2.735 2.24-4.463 2.976-1.728.736-3.616 1.104-5.664 1.104Zm-8.257-13.584c0 1.44.337 2.816 1.009 4.128a8.284 8.284 0 0 0 2.831 3.12c1.248.8 2.736 1.2 4.464 1.2 1.76 0 3.248-.416 4.464-1.248 1.217-.864 2.144-1.936 2.784-3.216.64-1.312.961-2.656.961-4.032 0-1.44-.336-2.8-1.008-4.08a7.812 7.812 0 0 0-2.881-3.072c-1.216-.8-2.671-1.2-4.367-1.2-1.76 0-3.265.416-4.513 1.248a8.276 8.276 0 0 0-2.784 3.168 8.804 8.804 0 0 0-.96 3.984ZM0 27.305 11.712.473h4.752l11.664 26.832h-6.144l-2.688-6.288H8.88l-2.688 6.288H0ZM14.112 7.529l-3.936 8.448h7.728l-3.792-8.448Z" fill="#5A29E4"/><path d="m50.821.473 7.392 9.504L65.605.473h6.288L61.285 14.057l10.272 13.248H65.27l-7.056-9.12-7.008 9.12h-6.384l10.32-13.248L44.485.473h6.336Z" fill="#5A29E4"/></g></symbol><symbol id="bem" viewBox="0 0 256 212" preserveAspectRatio="xMidYMid"><path d="M0 32.7h59.85v17.6H0V32.7ZM0 0h59.85v17.6H0V0Zm107.38 65.13H0v17.6h103.36c11.31 0 37.72.26 47.52 16.1v-9.8c-4.77-15.6-18.86-23.9-43.5-23.9Zm.25 32.7H0v17.6h103.36c25.14 0 40.99 1 47.52 4.52v-7.8c-5.03-12.32-26.15-14.33-43.25-14.33Zm-.25 82.98H0v-17.6h103.36c11.31 0 37.72-.26 47.52-16.1v9.8c-4.77 15.6-18.86 23.9-43.5 23.9Zm.25-32.7H0v-17.6h103.36c25.14 0 40.99-1 47.52-4.52v7.8c-5.03 12.32-26.15 14.33-43.25 14.33Zm69.4 63.13H256v-10.82h-76.7c-6.79 0-22.88-.25-28.67-9.55v6.03c2.77 9.3 11.32 14.34 26.4 14.34Zm-.24-19.87h78.96v-10.81H179.3c-15.34 0-24.9-.5-28.67-2.77v4.78c3.02 7.54 15.85 8.8 26.16 8.8Z" fill="#010101"/></symbol><symbol id="books" viewBox="0 0 6.35 6.35"><path style="color:#000;font-style:normal;font-variant:normal;font-weight:400;font-stretch:normal;font-size:medium;line-height:normal;font-family:sans-serif;font-variant-ligatures:normal;font-variant-position:normal;font-variant-caps:normal;font-variant-numeric:normal;font-variant-alternates:normal;font-feature-settings:normal;text-indent:0;text-align:start;text-decoration:none;text-decoration-line:none;text-decoration-style:solid;text-decoration-color:#000;letter-spacing:normal;word-spacing:normal;text-transform:none;writing-mode:lr-tb;direction:ltr;text-orientation:mixed;dominant-baseline:auto;baseline-shift:baseline;text-anchor:start;white-space:normal;shape-padding:0;clip-rule:nonzero;display:inline;overflow:visible;visibility:visible;opacity:1;isolation:auto;mix-blend-mode:normal;color-interpolation:sRGB;color-interpolation-filters:linearRGB;solid-color:#000;solid-opacity:1;vector-effect:none;fill:#dba147;fill-opacity:1;fill-rule:nonzero;stroke:none;stroke-width:.26458335;stroke-linecap:round;stroke-linejoin:miter;stroke-miterlimit:4;stroke-dasharray:none;stroke-dashoffset:0;stroke-opacity:1;paint-order:normal;color-rendering:auto;image-rendering:auto;shape-rendering:auto;text-rendering:auto;enable-background:accumulate" d="M2.34 292.4a.27.27 0 0 0-.26.26v3.11c0 .14.12.27.26.27h.3c.15 0 .27-.13.27-.27v-3.11a.27.27 0 0 0-.27-.27z" transform="translate(0 -290.65)"/><path style="color:#000;font-style:normal;font-variant:normal;font-weight:400;font-stretch:normal;font-size:medium;line-height:normal;font-family:sans-serif;font-variant-ligatures:normal;font-variant-position:normal;font-variant-caps:normal;font-variant-numeric:normal;font-variant-alternates:normal;font-feature-settings:normal;text-indent:0;text-align:start;text-decoration:none;text-decoration-line:none;text-decoration-style:solid;text-decoration-color:#000;letter-spacing:normal;word-spacing:normal;text-transform:none;writing-mode:lr-tb;direction:ltr;text-orientation:mixed;dominant-baseline:auto;baseline-shift:baseline;text-anchor:start;white-space:normal;shape-padding:0;clip-rule:nonzero;display:inline;overflow:visible;visibility:visible;opacity:1;isolation:auto;mix-blend-mode:normal;color-interpolation:sRGB;color-interpolation-filters:linearRGB;solid-color:#000;solid-opacity:1;vector-effect:none;fill:#ca7d73;fill-opacity:1;fill-rule:nonzero;stroke:none;stroke-width:.26458335;stroke-linecap:round;stroke-linejoin:miter;stroke-miterlimit:4;stroke-dasharray:none;stroke-dashoffset:0;stroke-opacity:1;paint-order:normal;color-rendering:auto;image-rendering:auto;shape-rendering:auto;text-rendering:auto;enable-background:accumulate" d="M1.1 292.03a.27.27 0 0 0-.26.27v3.47c0 .14.12.27.26.27h.98c.14 0 .26-.13.26-.27v-3.47a.27.27 0 0 0-.26-.27z" transform="translate(0 -290.65)"/><path style="color:#000;font-style:normal;font-variant:normal;font-weight:400;font-stretch:normal;font-size:medium;line-height:normal;font-family:sans-serif;font-variant-ligatures:normal;font-variant-position:normal;font-variant-caps:normal;font-variant-numeric:normal;font-variant-alternates:normal;font-feature-settings:normal;text-indent:0;text-align:start;text-decoration:none;text-decoration-line:none;text-decoration-style:solid;text-decoration-color:#000;letter-spacing:normal;word-spacing:normal;text-transform:none;writing-mode:lr-tb;direction:ltr;text-orientation:mixed;dominant-baseline:auto;baseline-shift:baseline;text-anchor:start;white-space:normal;shape-padding:0;clip-rule:nonzero;display:inline;overflow:visible;visibility:visible;opacity:1;isolation:auto;mix-blend-mode:normal;color-interpolation:sRGB;color-interpolation-filters:linearRGB;solid-color:#000;solid-opacity:1;vector-effect:none;fill:#82c1a0;fill-opacity:1;fill-rule:nonzero;stroke:none;stroke-width:.26458335;stroke-linecap:round;stroke-linejoin:miter;stroke-miterlimit:4;stroke-dasharray:none;stroke-dashoffset:0;stroke-opacity:1;paint-order:normal;color-rendering:auto;image-rendering:auto;shape-rendering:auto;text-rendering:auto;enable-background:accumulate" d="M2.91 291.49a.27.27 0 0 0-.27.26v4.02c0 .14.13.27.27.27h.58c.14 0 .26-.13.26-.27v-4.02a.27.27 0 0 0-.26-.26z" transform="translate(0 -290.65)"/><path style="color:#000;font-style:normal;font-variant:normal;font-weight:400;font-stretch:normal;font-size:medium;line-height:normal;font-family:sans-serif;font-variant-ligatures:normal;font-variant-position:normal;font-variant-caps:normal;font-variant-numeric:normal;font-variant-alternates:normal;font-feature-settings:normal;text-indent:0;text-align:start;text-decoration:none;text-decoration-line:none;text-decoration-style:solid;text-decoration-color:#000;letter-spacing:normal;word-spacing:normal;text-transform:none;writing-mode:lr-tb;direction:ltr;text-orientation:mixed;dominant-baseline:auto;baseline-shift:baseline;text-anchor:start;white-space:normal;shape-padding:0;clip-rule:nonzero;display:inline;overflow:visible;visibility:visible;opacity:1;isolation:auto;mix-blend-mode:normal;color-interpolation:sRGB;color-interpolation-filters:linearRGB;solid-color:#000;solid-opacity:1;vector-effect:none;fill:#828ad3;fill-opacity:1;fill-rule:nonzero;stroke:none;stroke-width:.26458338;stroke-linecap:round;stroke-linejoin:miter;stroke-miterlimit:4;stroke-dasharray:none;stroke-dashoffset:0;stroke-opacity:1;paint-order:normal;color-rendering:auto;image-rendering:auto;shape-rendering:auto;text-rendering:auto;enable-background:accumulate" d="M3.7 292.27a.27.27 0 0 0-.18.32l.92 3.38c.03.14.18.22.32.18l.56-.15a.27.27 0 0 0 .18-.32l-.92-3.38a.27.27 0 0 0-.32-.18z" transform="translate(0 -290.65)"/><path style="color:#000;font-style:normal;font-variant:normal;font-weight:400;font-stretch:normal;font-size:medium;line-height:normal;font-family:sans-serif;font-variant-ligatures:normal;font-variant-position:normal;font-variant-caps:normal;font-variant-numeric:normal;font-variant-alternates:normal;font-feature-settings:normal;text-indent:0;text-align:start;text-decoration:none;text-decoration-line:none;text-decoration-style:solid;text-decoration-color:#000;letter-spacing:normal;word-spacing:normal;text-transform:none;writing-mode:lr-tb;direction:ltr;text-orientation:mixed;dominant-baseline:auto;baseline-shift:baseline;text-anchor:start;white-space:normal;shape-padding:0;clip-rule:nonzero;display:inline;overflow:visible;visibility:visible;opacity:1;isolation:auto;mix-blend-mode:normal;color-interpolation:sRGB;color-interpolation-filters:linearRGB;solid-color:#000;solid-opacity:1;vector-effect:none;fill:#f46c6c;fill-opacity:1;fill-rule:nonzero;stroke:none;stroke-width:.26458335;stroke-linecap:round;stroke-linejoin:miter;stroke-miterlimit:4;stroke-dasharray:none;stroke-dashoffset:0;stroke-opacity:1;paint-order:normal;color-rendering:auto;image-rendering:auto;shape-rendering:auto;text-rendering:auto;enable-background:accumulate" d="M.84 292.6v.68h1.5v-.68zm0 2.32v.68h1.5v-.68z" transform="translate(0 -290.65)"/><path style="color:#000;font-style:normal;font-variant:normal;font-weight:400;font-stretch:normal;font-size:medium;line-height:normal;font-family:sans-serif;font-variant-ligatures:normal;font-variant-position:normal;font-variant-caps:normal;font-variant-numeric:normal;font-variant-alternates:normal;font-feature-settings:normal;text-indent:0;text-align:start;text-decoration:none;text-decoration-line:none;text-decoration-style:solid;text-decoration-color:#000;letter-spacing:normal;word-spacing:normal;text-transform:none;writing-mode:lr-tb;direction:ltr;text-orientation:mixed;dominant-baseline:auto;baseline-shift:baseline;text-anchor:start;white-space:normal;shape-padding:0;clip-rule:nonzero;display:inline;overflow:visible;visibility:visible;opacity:1;isolation:auto;mix-blend-mode:normal;color-interpolation:sRGB;color-interpolation-filters:linearRGB;solid-color:#000;solid-opacity:1;vector-effect:none;fill:#d5b65d;fill-opacity:1;fill-rule:nonzero;stroke:none;stroke-width:.26458335;stroke-linecap:round;stroke-linejoin:miter;stroke-miterlimit:4;stroke-dasharray:none;stroke-dashoffset:0;stroke-opacity:1;paint-order:normal;color-rendering:auto;image-rendering:auto;shape-rendering:auto;text-rendering:auto;enable-background:accumulate" d="M2.65 295.42v.35c0 .15.12.27.26.27h.58c.14 0 .26-.12.26-.27v-.35zm.26-3.93a.27.27 0 0 0-.26.26v.4h1.1v-.4a.27.27 0 0 0-.26-.26z" transform="translate(0 -290.65)"/></symbol><symbol id="bootstrap" preserveAspectRatio="xMinYMin meet"><path d="M0 222.991C0 241.223 14.779 256 33.009 256H222.99c18.233 0 33.01-14.779 33.01-33.009V33.01C256 14.777 241.221 0 222.991 0H33.01C14.777 0 0 14.779 0 33.009V222.99z" fill="#563D7C"/><path d="M106.158 113.238V76.985h31.911c3.04 0 5.97.253 8.792.76 2.822.506 5.319 1.41 7.49 2.713 2.17 1.303 3.907 3.112 5.21 5.427 1.302 2.316 1.954 5.283 1.954 8.9 0 6.513-1.954 11.217-5.862 14.111-3.907 2.895-8.9 4.342-14.979 4.342h-34.516zM72.075 50.5v155h75.112c6.947 0 13.713-.868 20.298-2.605 6.585-1.737 12.446-4.414 17.584-8.032 5.137-3.618 9.226-8.286 12.265-14.002 3.04-5.717 4.559-12.483 4.559-20.298 0-9.697-2.352-17.982-7.055-24.856-4.704-6.875-11.832-11.687-21.384-14.437 6.947-3.328 12.194-7.598 15.74-12.808 3.545-5.21 5.318-11.722 5.318-19.538 0-7.236-1.194-13.314-3.582-18.235-2.388-4.92-5.753-8.864-10.095-11.831-4.341-2.967-9.551-5.102-15.63-6.404-6.078-1.303-12.808-1.954-20.189-1.954H72.075zm34.083 128.515v-42.549h37.121c7.381 0 13.315 1.7 17.802 5.102 4.486 3.401 6.73 9.081 6.73 17.041 0 4.053-.688 7.381-2.063 9.986-1.375 2.605-3.22 4.668-5.536 6.187-2.315 1.52-4.993 2.605-8.032 3.257-3.04.65-6.223.976-9.552.976h-36.47z" fill="#FFF"/></symbol><symbol id="cat" viewBox="0 0 83.86 67.25"><path d="M82.81 48.18a2.5 2.5 0 0 0-3.48.6c-6.41 8.96-13.23 10.4-17.74 10.45-.35 0-.68 0-1-.02 7.24-31.8-29.53-42.56-29.53-42.56l-.02.01-3.5-3.17-5.86-8.72C21.45 2.8 21 .12 20.29 0c-.58-.1-1.68 1.48-2.63 3.07-.24-1.17-.57-2.1-.98-2.18-.63-.1-1.86 1.73-2.85 3.43l-5.2-.26-2.7 1.92L.47 9.02 0 9.95l.86 6.21 1.7 1.5 3.64 1.45 6.64 12.43 9.14-5.61c-3.42 3.94-6.58 8.34-6.95 11.45-.07.35-.1.75-.1 1.2.04 7.04-.42 28.17 3.37 28.28 2.53.07 4.04-9.74 4.84-17.6 5.32 4.7 11.84 8.55 15.68 10.62 3.48-.5 7.8-.33 7.1-.92-1.42-1.21-10.73-6.8-6.71-13.09 1.34-2.11 3.16-2.2 4.98-1.4a3.68 3.68 0 0 0-2.73 1.74c-4.02 6.19 5.3 11.72 6.72 12.91.91.77-6.94 1.05-10.09 2.42-1.76.76-2.1 2.6-1.67 3.55.62 1.37 6.7 2.07 12.42 2.15 5.21.07 10.13-.38 10.4-1.31.1-.34.11-.99.08-1.81a23 23 0 0 0 2.27.12h.2c5.7 0 14.47-2.4 21.61-12.57a2.5 2.5 0 0 0-.59-3.49zM8.66 10.27c-.55.69-1.56.8-2.25.25a1.6 1.6 0 0 1-.25-2.25 1.6 1.6 0 0 1 2.5 2z"/></symbol><symbol id="css" viewBox="0 0 512 512"><g style="enable-background:new 0 0 512 512"><path style="fill:#2196f3" d="m32 0 40.8 460.8L256 512l183.14-51.17L480 0z"/><path style="fill:#fafafa" d="m392.77 150.69-5.15 57.89-15.56 173.53L256 414.21l-.1.03-116-32.13-8.09-90.75h56.83l4.22 47.07 63.08 17.03.03-.04 63.17-17.02 8.6-78.43-198.65.54-5.63-53.63 209.05-2.46 4.23-57.41-218.88.61-3.68-53.41h283.64z"/></g></symbol><symbol id="en" viewBox="0 0 512 512"><g style="enable-background:new 0 0 512 512"><path style="fill:#103b9b" d="M469.06 421.16H42.94a34.68 34.68 0 0 1-34.68-34.68V125.52a34.68 34.68 0 0 1 34.68-34.68h426.12a34.68 34.68 0 0 1 34.68 34.68v260.96a34.68 34.68 0 0 1-34.68 34.68z"/><path style="fill:#fff" d="M467.96 90.84h-44.61L256 202.4 88.65 90.84H39.27a31.01 31.01 0 0 0-31.01 31.01v22.58L175.6 256 8.26 367.57v18.9a34.68 34.68 0 0 0 34.68 34.7h45.71L256 309.58l167.35 111.57h46.8a33.58 33.58 0 0 0 33.6-33.58v-20.01L336.38 256l167.35-111.57v-17.8a35.79 35.79 0 0 0-35.78-35.8z"/><path style="fill:#ed1f34" d="M20.82 412.79a35.27 35.27 0 0 0 22.85 8.37h18.18l220.95-147.3L491.18 412.8l12.55-26.57v-.04L282.49 238.34l208.7-139.13a35.27 35.27 0 0 0-22.87-8.37h-18.18l-220.93 147.3L20.81 99.21a35.33 35.33 0 0 0-12.55 27.05v.33l220.66 147.46L20.82 412.8z"/><path style="fill:#121b21" d="M229.21 246.4c-1.6 0-3.19-.46-4.58-1.39L16.23 106.08a8.26 8.26 0 0 1 9.17-13.74l203.8 135.88L445.57 83.97a8.26 8.26 0 1 1 9.16 13.74l-220.94 147.3a8.25 8.25 0 0 1-4.58 1.4zm274.52 148.05a8.2 8.2 0 0 1-4.58-1.4L277.9 245.22a8.26 8.26 0 0 1 0-13.74L486.6 92.34a8.26 8.26 0 0 1 9.16 13.74l-198.4 132.27 210.97 140.98a8.26 8.26 0 0 1-4.6 15.12zM61.86 429.42a8.25 8.25 0 0 1-4.59-15.13l220.94-147.3a8.26 8.26 0 0 1 9.17 0l208.38 138.93a8.26 8.26 0 0 1-9.16 13.74L282.8 283.79 66.43 428.03c-1.4.94-3 1.39-4.57 1.39zm-41.04-8.37a8.25 8.25 0 0 1-4.58-15.13l197.8-131.88L3.67 133.47a8.26 8.26 0 1 1 9.18-13.73L233.5 267.19a8.26 8.26 0 0 1 0 13.73L25.4 419.66c-1.4.94-3 1.39-4.57 1.39z"/><path style="fill:#fff" d="M503.74 211.41H300.59V90.84h-89.18v120.57H8.26v89.18h203.15v120.57h89.18V300.59h203.15z"/><path style="fill:#ed1f34" d="M503.74 232.05H279.95V90.84h-47.9v141.21H8.26v47.9h223.79v141.21h47.9V279.95h223.79z"/><path style="fill:#121b21" d="M468.32 82.58H43.68A43.72 43.72 0 0 0 0 126.26v259.48a43.73 43.73 0 0 0 43.68 43.68h424.64A43.72 43.72 0 0 0 512 385.74V126.26a43.72 43.72 0 0 0-43.68-43.68zm27.16 43.68v97.53H288.21V99.1h180.11a27.19 27.19 0 0 1 27.16 27.17zM43.68 99.1h180.11v124.7H16.52v-97.54A27.19 27.19 0 0 1 43.68 99.1zM16.52 385.74v-97.53h207.27v124.7H43.68a27.2 27.2 0 0 1-27.16-27.17zm451.8 27.16H288.21V288.2h149.47a8.26 8.26 0 1 0 0-16.51H279.95a8.26 8.26 0 0 0-8.26 8.26V412.9h-31.38V279.95c0-4.56-3.7-8.26-8.26-8.26H16.52v-31.38h215.53c4.56 0 8.26-3.7 8.26-8.26V99.1h31.38v132.95c0 4.56 3.7 8.26 8.26 8.26h215.53v31.38h-24.77a8.26 8.26 0 1 0 0 16.52h24.77v97.53a27.2 27.2 0 0 1-27.16 27.16z"/></g></symbol><symbol id="english"><path fill="none" d="M0 0h24v24H0z"/><path d="M14 10h2v.76a4.5 4.5 0 0 1 7 3.74V20h-2v-5.5a2.5 2.5 0 0 0-5 0V20h-2V10zm-2-6v2H4v5h8v2H4v5h8v2H2V4h10z"/></symbol><symbol id="figma"><g fill="none"><path d="M0 24a24 24 0 1 1 48 0 24 24 0 0 1-48 0Z" fill="#333"/><path d="M19.2 38.4a4.8 4.8 0 0 0 4.8-4.8v-4.8h-4.8a4.8 4.8 0 0 0 0 9.6Z" fill="#0ACF83"/><path d="M14.4 24a4.8 4.8 0 0 1 4.8-4.8H24v9.6h-4.8a4.8 4.8 0 0 1-4.8-4.8Z" fill="#A259FF"/><path d="M14.4 14.4a4.8 4.8 0 0 1 4.8-4.8H24v9.6h-4.8a4.8 4.8 0 0 1-4.8-4.8Z" fill="#F24E1E"/><path d="M24 9.6h4.8a4.8 4.8 0 1 1 0 9.6H24V9.6Z" fill="#FF7262"/><path d="M33.6 24a4.8 4.8 0 1 1-9.6 0 4.8 4.8 0 0 1 9.6 0Z" fill="#1ABCFE"/></g></symbol><symbol id="foundation" viewBox="-62 0 380 380" preserveAspectRatio="xMidYMid"><path d="M255.85 364.17c0 8.58-57.26 15.53-127.9 15.53-70.63 0-127.9-6.95-127.9-15.53 0-8.58 67.18-15.53 127.9-15.53 72.29 0 127.9 6.95 127.9 15.53" fill="#1A4658"/><path d="M247.93 252.1c-3.96 0-8.22-1.82-11.27-15.83-3.04-14-7.61-28.32-7.61-28.32 4.87 0 7.61-2.13 7.61-2.13-3.35-1.52-10.66-6.7-15.53-13.1-4.87-6.39-17.36-16.74-17.36-16.74v-20.7c0-14.01 8.99-24.98 8.99-24.98-6.1 0-8.99 5.48-8.99 5.48v-29.53c0-29.24 14.77-42.33 14.77-42.33-4.57-.3-7.61 1.83-7.61 1.83 2.13-21.62 8.76-28.02 8.76-28.02-24.37-6.4-37.95 7.92-37.95 7.92-2.75-13.1 7.97-20.71 7.97-20.71-12.48-2.74-22.81.91-22.81.91 0-19.18 7.63-25.58 7.63-25.58-38.07 0-59.68 28.62-59.68 28.62-1.52-12.18 1.83-22.85 1.83-22.85-36.85 15.53-46.59 49.93-46.59 49.93-2.43-5.79-2.74-18.92-2.74-18.92S52.13 62.55 49.4 80.2c-2.74 17.66 2.43 68.36 2.43 68.36s-2.43-3.04-7.61-3.65c0 0 5.48 6.1 5.48 19.8 0 0-2.13-1.83-5.78-.92 0 0 5.78 5.18 6.39 14 0 0-6.7 4.58-10.35 9.14 0 0-5.79.3-8.83 1.22 0 0 4.87 2.74 5.78 5.18 0 0-14.31 14.61-21.62 26.49 0 0 6.4-3.96 10.96-2.74 0 0-10.05 12.18-13.4 32.28 0 0 4.88-2.44 7-1.22 0 0-6.08 12.79-6.39 26.19l-6.7 3.96 5.18 3.65s-3.96 16.45-4.87 25.88c0 0 3.04-3.04 5.48-3.95 0 0 3.35 7.91 7.92 14 4.57 6.1 14.92 11.27 21 11.27l11.46-.45c-1.42 6.13-4.22 11.33-10.13 11.6l-.65 1.05-.37-.02c-.11 1.79-3.72 2.11-4.72 3.35-3.01 3.77-5.32 8.94-6.85 13.55-1.12 3.38-.6 3.38-1.37 6.85-.25 1.14-1.43 2.35-1.83 3.5 3.3-1.1 12.4-1.84 17.2-2.19l.09 4.25s.79.74 2.1 1.27l.14-.02c.45.04.88.1 1.3.2 7.2-.64 12.21.58 20.56-.11 1.63-.2 3.15-.43 4.57-1.24.4-1.2.46-1.28.65-2.84.04-.28.04-.56.1-.9a18.17 18.17 0 0 1 .7-.1c.03-.01.06-.03.1-.03l.4-.04c.09-.03.17-.04.25-.02 1.51-.13 3.94-.26 5.45-.34 4.9-.01 11.37.55 11.37.55.4-5.5.8-14.04 9.7-38.94l2.21-1.37s27.36 9.64 52.75-.38c2 4.94 8.5 21.56 9.53 32.03.87 1.23.77 2.79.8 4.44.03 1.4.14 2.8.18 4.19.91-.13 4.21-.53 8.37-.52 1.51.08 3.94.2 5.45.34a.41.41 0 0 1 .25.02l.4.04c.04 0 .07.02.1.03a18.8 18.8 0 0 1 .68.1c.08.34.08.62.12.9.19 1.56.24 1.64.65 2.84.13.08.26.14.4.2 4.54-.57 9.14-.67 13.72-.46 3.6.17 7.13.85 10.67 1.5v.1l1.06.08c1.9.34 3.8.66 5.72.86.04-2.4.02-4.5-.03-6.33 3.82.18 9.34.94 11.65 1.28.92.22 1.67.35 2.45.52l.32.1-.02-.03c.79.17 1.64.4 2.76.79-.17-2.06-.16-2.02-.43-4.6-.21-2-1.64-8.07-4.32-10.57 0 0 2.92 1.26 3.8 1.76-2.87-3.9-4.27-9.47-13.31-13.32 0 0 1.65-.78 3.16-.97-1.58-.97-2.78-1.36-4.38-1.24.54-1.54 2.93-5.43 4.93-5.93 0 0-1.23-.85-3.24-.2-.75.4-1.47.82-2.18 1.32-.26.18-.65-.01-.73-.3a66.31 66.31 0 0 1-1.42-7.1c18.22-.66 20.78-10.01 20.78-10.01 1.52 1.22 1.52 3.96 1.52 3.96 7.92-10.36 7-20.71 7-20.71a8.28 8.28 0 0 1 3.36 1.52c.91-15.83-3.96-42.93-3.96-42.93 2.43 1.21 3.96-.3 3.96-.3-2.74-1.23-3.05-4.27-3.05-4.27 3.96.3 4.57-3.35 4.57-3.35" fill="#EDF7FA"/><path d="M73.72 367s.71-7.7-1.8-13.26c0 0 4.76.32 5.56 12.88 0 0-3.33.4-3.76.38m-23.88-25.97.03-.24c.02.12.02.2-.03.24m4.46 25.37h-.05l.06-.15-.01.15" fill="#CDE9EE"/><path d="M114.85 28.9a60.1 60.1 0 0 1 1.83-22.86C79.84 21.57 70.1 55.97 70.1 55.97c-2.43-5.79-2.74-18.92-2.74-18.92S52.13 62.55 49.4 80.2c-2.74 17.66 2.43 68.36 2.43 68.36s-2.43-3.04-7.61-3.65c0 0 5.48 6.1 5.48 19.8 0 0-2.13-1.83-5.78-.92 0 0 5.78 5.18 6.39 14 0 0-6.7 4.58-10.35 9.14 0 0-5.79.3-8.83 1.22 0 0 4.87 2.74 5.78 5.18 0 0-14.31 14.61-21.62 26.49 0 0 6.4-3.96 10.96-2.74 0 0-10.05 12.18-13.4 32.28 0 0 4.88-2.44 7-1.22 0 0-6.08 12.79-6.39 26.19l-6.7 3.96 5.18 3.65s-3.96 16.45-4.87 25.88c0 0 3.04-3.04 5.48-3.95 0 0 3.35 7.91 7.92 14 4.57 6.1 14.92 11.27 21 11.27l.78-.1c-.34 2.1-.72 4.19-1.28 6.25-.08.29-.47.48-.73.3-.7-.5-1.43-.92-2.18-1.31-2.01-.66-3.24.19-3.24.19 2 .5 4.39 4.39 4.93 5.93-1.6-.12-2.8.27-4.38 1.24 1.51.2 3.16.97 3.16.97-9.04 3.85-10.44 9.42-13.32 13.32.9-.5 3.81-1.76 3.81-1.76-2.68 2.5-4.1 8.57-4.32 10.57-.27 2.58-.26 2.54-.43 4.6 2.4-.84 3.57-.92 5.5-1.38 3-.44 11.38-1.59 14.46-1.27l-.48 5.92h.15c1.58-.46 2.87-.4 4.28-.55.02-1.63.1-3.26.24-4.88-.1-2.78.25-5.31.81-8.13l.07-.29a17.29 17.29 0 0 1 4.32-7.39 8.2 8.2 0 0 0 1.1-1.52c.75-1 1.53-2.31 2.14-3.96 1.25-3.42.71-10.92-1.8-18.25 2.65 3.82 5.07 7.17 6.21 8.31l-.07-9.32s4.87 4.87 9.23 8.55c2.1 1.83 4.69 4.21 6.53 5.16.13.09.25-.8.4.54.01 0 .03-.27.05-.26 2.47 1.39 5.01 2.49 7.39 4.03.25.16.51.24.76.42 1.1.75 3.04 1.6 4.78 2.51l1.65 19.45c1.48-20.44 13.13-40.01 13.13-40.01l-.42-.13c-3.6-1.12-29.98-10.24-45.56-42.82-1.03-2.14 5.79 2.44 5.79 2.44-6.4-15.53-8.84-40.5-8.84-40.5a9.26 9.26 0 0 0 4.27 2.13c-4.57-12.79-6.4-28.62-6.4-42.94-1.21-77.04 27.26-94.7 27.26-94.7-4.87-1.83-10.05-1.67-10.05-1.67C76.79 95.28 95.52 76.4 95.52 76.4c-5.03.31-24.67 5.64-24.67 5.64 16.3-42.48 32.74-53.75 32.74-53.75-1.22 10.2 2.74 21.01 2.74 21.01 35.32-43.7 63.7-41.66 63.7-41.66 2.11-4.38 4.5-7.37 4.5-7.37-38.06 0-59.68 28.62-59.68 28.62m99.85 337.87s-.35-11.04-2.86-16.6c0 0 6.55 4.04 6.51 16.79l-3.65-.2" fill="#CDE9EE"/><path d="M44.36 309.98c4.3-42.24 5.48-124.86 5.48-124.86-9.36 18.5-16.9 52.07-16.9 52.07l1.83 7.3-4.11-1.82c-6.6 22.93-2.14 53.62-.66 62.27 4.2 3.33 9.21 4.45 14.36 5.04m-8.84-.91a666.6 666.6 0 0 0 4.27 19.98c1.15.18 2.43.09 2.43.09 1.05-4.08 1.22-10.4 2.04-18.18-3-.35-5.95-.88-8.74-1.89" fill="#ABD8D7"/><path d="M178.63 345.47a.45.45 0 0 1-.53-.21l-1.08.24c6.28-4.57 6.86-9.4 6.86-9.4a37.86 37.86 0 0 1-10.74 2.82c14.52-12.58 16.93-35.96 16.93-35.96-5.95 7.3-14.39 13.47-20.91 17.62l.01-.03s-4.37 2.44-8.4 4.34a.46.46 0 0 0-.5.23c-2.07.96-4 1.75-5.14 1.94 0 0 3.36 6.2 4.77 9.56l-.28.22s4.87 11.5 6.64 22.64c.18 1.88.33 3.53.43 4.8.08 1.62.2 2.74.2 2.74 6.43-.95 15.52-.02 15.52-.02a22.8 22.8 0 0 0 .64 4.02c3.05-.41 6.14-.6 9.22-.62-.04-10.8-.52-28.74-13.64-24.93" fill="#CDE9EE"/><path d="M44.02 313.24c-10.09-1.7-19.24-13.3-19.24-13.3a29.53 29.53 0 0 0 16.5 8.87c1.22-8.93-6.17-29.38-6.17-29.38 5.47 6.81 8.46 14.69 10.1 21.13L44 313.24" fill="#83BAC0"/><path d="M66.91 297.42s7.94 14 14.9 20.04c7.52 6.54 14.5 15.76 17.48 21.36 0 0 3.77-8.76 5.82-11.8 0 0-22.27-6.53-38.2-29.6M170.5 324.7c1.1-1.55 2.37-2.99 3.58-4.46 1.97-2.42 4.23-4.77 5.89-7.4-2.87 2.14-6.05 4-9.31 5.96-9.46 6.4-16.05 8.22-16.05 8.22 2.06 3.04 5.83 11.8 5.83 11.8 1.8-3.39 5.07-8.1 9.04-12.75.33-.46.7-.9 1.02-1.36" fill="#ABD8D7"/><path d="M63.9 89.1c-.86.07-3.63.14-3.63.14C35.16 91 16.7 71.54 16.7 71.54s-1.65 15.19 9.25 28.5c10.91 13.3 33.02 15.58 33.02 15.58.72 3.11-.84 10.05-.84 10.05s6.47-7.15 8.1-20.7c1.16-9.5-1.8-15.9-2.34-15.86" fill="#545352"/><path d="M63.9 89.1c-.83.06-3.63.14-3.63.14C35.16 91 16.7 71.54 16.7 71.54s11.47 33.2 49.77 30.57c0 0 1.06-6.14-2.58-13" fill="#6E7979"/><path d="M189.26 89.1c.86.07 3.63.14 3.63.14 25.11 1.75 43.56-17.7 43.56-17.7s1.65 15.19-9.25 28.5c-10.91 13.3-33.02 15.58-33.02 15.58-.72 3.11.84 10.05.84 10.05s-6.47-7.15-8.1-20.7c-1.16-9.5 1.8-15.9 2.34-15.86" fill="#545352"/><path d="M189.26 89.1c.83.06 3.63.14 3.63.14 25.11 1.75 43.56-17.7 43.56-17.7s-11.47 33.2-49.77 30.57c0 0-1.06-6.14 2.58-13" fill="#6E7979"/><path d="M50.8 201.56s-18.05 64.86 0 106.43V201.56m179.7 102.6c-8.91 6.8-18.18 7.23-18.18 7.23-.41-8.88 9.3-28.3 9.3-28.3a21.1 21.1 0 0 0-5.45 4.61l-.06-6.51 7-5.79-5.63-4.56 7.15-28.78-6.85 4.57s-2.13-40.96-.6-58.62c0 0-8.69-8.68-12.95-12.18 0 0 .8 12.6 1.73 32.76 3.89 16.16 9.93 49.6 2.41 79.03.09 5.96.15 12.01.19 18.13 0 0 3.74 13 4.96 22.14 0 0 1.22.35 3.04.04l-.13-13.99a27.62 27.62 0 0 0 14.07-9.78m-84.43-125.59c0 6.91 4.43 12.52 9.9 12.52 5.46 0 9.9-5.6 9.9-12.52s-4.44-12.53-9.9-12.53c-5.47 0-9.9 5.6-9.9 12.53" fill="#CDE9EE"/><path d="M146.37 175.22c0 6.81 4.37 12.33 9.75 12.33s9.74-5.52 9.74-12.33c0-6.81-4.36-12.33-9.74-12.33s-9.75 5.52-9.75 12.33" fill="#FFF"/><path d="M153.53 168.86c-.08.3-.13.62-.13.95 0 1.74 1.13 3.15 2.53 3.15 1.24 0 2.27-1.12 2.48-2.58a6.6 6.6 0 0 1 1.29 4c0 3.22-2.1 5.83-4.69 5.83-2.58 0-4.68-2.61-4.68-5.83 0-2.57 1.34-4.75 3.2-5.52" fill="#474746"/><path d="M98.56 178.57c0 6.91 4.43 12.52 9.9 12.52 5.47 0 9.9-5.6 9.9-12.52s-4.43-12.53-9.9-12.53c-5.47 0-9.9 5.6-9.9 12.53" fill="#CDE9EE"/><path d="M98.87 175.22c0 6.81 4.36 12.33 9.74 12.33 5.39 0 9.75-5.52 9.75-12.33 0-6.81-4.36-12.33-9.75-12.33-5.38 0-9.74 5.52-9.74 12.33" fill="#FFF"/><path d="M107.85 168.86c-.07.3-.13.62-.13.95 0 1.74 1.13 3.15 2.53 3.15 1.24 0 2.27-1.12 2.48-2.58a6.6 6.6 0 0 1 1.29 4c0 3.22-2.1 5.83-4.68 5.83-2.59 0-4.68-2.61-4.68-5.83 0-2.57 1.34-4.75 3.2-5.52" fill="#474746"/><path d="M181.73 188.4c-.62 1.86-2.73 2.36-8.74 3.52l-.4.08c-5.9 1.13-16.42.98-22.18.14l-.72-.11c-5.34-.9-5.95-1.6-7.67-4.37-1.78-2.86-2.87-11.28-3.07-12.94v-.08c-.22-1.75-.33-2.63 1.93-3.64 3.03-1.36 16.48-3.26 21.99-3.5 4.35-.2 13.57.4 17.8 1.02.65.1 1.14.2 1.45.27.48.13 2.27 1 2.18 2.9-.12 2.5-1.73 14.18-2.57 16.7Zm-58.67-13.76v.08c-.2 1.66-1.3 10.08-3.07 12.94-1.72 2.77-2.33 3.47-7.67 4.37l-.72.11c-5.76.84-16.29.99-22.18-.14l-.4-.08c-6.01-1.16-8.12-1.66-8.74-3.53-.84-2.52-2.45-14.2-2.57-16.7-.1-1.9 1.7-2.77 2.18-2.9.3-.08.8-.17 1.45-.27 4.22-.61 13.44-1.22 17.8-1.03 5.5.25 18.96 2.15 21.99 3.5 2.25 1.02 2.15 1.9 1.93 3.65Zm66.38-11.12a112.43 112.43 0 0 0-21.36-.9c-12.03.62-22.34 2.29-28.5 3.29-1.84.3-3.28.53-4.38.68l-1.2.16c-1.36.18-2.24.3-3 .34-.75-.04-1.64-.16-2.99-.34l-1.2-.16c-1.1-.15-2.55-.39-4.39-.68-6.15-1-16.46-2.67-28.5-3.3-9.24-.46-16.94.27-21.36.91 0 0-4.7.6-8.74 2.3l.77 5.13s4.26-1.02 8.41-1.57c.78 7.22 2.28 16.5 2.28 16.5l.02.28.34 1.42c.86 3.65 1.7 5.79 5.13 7.08 3.36 1.26 11.3 2.44 19.32 2.85 2.98.16 6.37-.03 9.79-.53 5.08-.74 9.67-2.1 11.42-3.4 2.55-1.89 3.92-6.63 4.82-9.77l.27-.93c.32-1.07.6-2.2.87-3.28.38-1.57.78-3.19 1.12-3.75.06-.1.35-.43 1.46-.6a9.05 9.05 0 0 1 2.32 0c1.12.17 1.4.5 1.47.6.33.56.73 2.18 1.12 3.75.27 1.09.54 2.21.86 3.28l.27.93c.9 3.14 2.27 7.88 4.83 9.77 1.75 1.3 6.34 2.66 11.41 3.4 3.43.5 6.81.69 9.8.53 8-.41 15.96-1.59 19.32-2.85 3.42-1.29 4.27-3.43 5.12-7.08l.34-1.42.02-.29s1.5-9.27 2.28-16.5c4.16.56 8.41 1.58 8.41 1.58l.77-5.12a38.33 38.33 0 0 0-8.74-2.3Z" fill="#545352"/><path d="M111.52 150.56s-11.01-5.25-17.31 4.5c0 0-.65-9.7 8.24-10.78s9.07 6.28 9.07 6.28m-4.13-14.24s-10.2-4.82-14.86 4.44c0 0-1.52-8.1 5.77-10.04 7.28-1.96 9.09 5.6 9.09 5.6m43.56 20.18s8.55-4.07 13.44 3.5c0 0 .5-7.53-6.4-8.37-6.9-.85-7.04 4.87-7.04 4.87m6.08-13.48s8.65-1.4 10.13 6.5c0 0 2.87-5.7-2.14-8.72-5.02-3.03-8 2.22-8 2.22" fill="#A0D1DE"/><path d="M110.75 227.35s6.04-4.05 9.6-4.61c0 0 .78 7.66 4.33 11.43 0 0 7.64-6.9 15.2-7.38 0 0 1.95 4.2 5.12 5.76l-.01.05a13.2 13.2 0 0 0 3.9 1.73s4.34-2.62 5.6-7.42c0 0 .41 10.13-5.95 15.64 0 0-4.84-2.36-8.33-6.15a15.84 15.84 0 0 1-2.67-3.17s-11.22 7.93-11.63 12.45c0 0-8.09-7.89-10.85-13.97 0 0-5.4 1.7-6.9 2.8 0 0-4.34-7.1-5.22-13.5 0 0 5.22 4.98 7.81 6.34" fill="#B2DCE5"/><path d="M131.13 207.45c-.45-.1 11.38.82 22.98.4 0 0 .62-2.2 1.51-3.42 0 0-.19 3.73.85 4.49 0 0-5.8 2.28-11.66 2.27 0 0 6.38-1.07 8.52-2.17 0 0-11.65.65-22.2-1.57" fill="#545352"/></symbol><symbol id="games" viewBox="0 0 58.19 58.19"><g style="enable-background:new 0 0 58.189 58.189"><path style="fill:#38454f" d="M29.1 39.27h9.44c1.7 0 3.35.6 4.64 1.71l9.13 7.83c.6.53 1.5.62 2.18.19 9.5-6.01-2.02-29.73-4.3-34.04-.25-.46-.65-2.93-1.13-3.11l-7.68-2.8a2.25 2.25 0 0 0-2.01.25s-2.17 1.38-2.65 1.38H21.74c-.48 0-2.92-1.38-2.92-1.38-.6-.4-1.34-.49-2.01-.24l-7.68 2.79c-.49.18-.88 2.65-1.13 3.11C5.72 19.26-5.8 42.98 3.7 49c.68.43 1.57.34 2.18-.18l9.13-7.83a7.13 7.13 0 0 1 4.64-1.71h9.45z"/><circle style="fill:#546a79" cx="36.79" cy="30.27" r="4"/><circle style="fill:#546a79" cx="13.79" cy="20.27" r="4"/><circle style="fill:#ebba16" cx="43.79" cy="16.27" r="2"/><circle style="fill:#7383bf" cx="39.79" cy="20.27" r="2"/><circle style="fill:#d75a4a" cx="47.79" cy="20.27" r="2"/><circle style="fill:#61b872" cx="43.79" cy="24.27" r="2"/><path style="fill:#afb6bb" d="M31.79 11.71c0-.19-.02-.38-.06-.56a1.08 1.08 0 0 0-.21-.47h-2.48c-.09 0-.17.03-.25.03-.09 0-.17-.02-.25-.03h-2.49a1 1 0 0 0-.2.4 3 3 0 0 0 2.4 3.59 3 3 0 0 0 3.54-2.96z"/><path style="fill:#546a79" d="M27.29 27.92H24v-3.29c0-.39-.32-.7-.71-.7h-2.57c-.4 0-.72.31-.72.7v3.3h-3.28c-.4 0-.72.31-.72.7v2.58c0 .4.32.71.72.71H20v3.29c0 .4.32.71.71.71h2.57c.4 0 .72-.32.72-.71v-3.29h3.28c.4 0 .72-.32.72-.71v-2.58c0-.39-.32-.7-.71-.7z"/></g></symbol><symbol id="git" viewBox="0 0 256 256" preserveAspectRatio="xMidYMid"><path d="M251.17 116.6 139.4 4.82a16.49 16.49 0 0 0-23.31 0l-23.21 23.2 29.44 29.45a19.57 19.57 0 0 1 24.8 24.96l28.37 28.38a19.61 19.61 0 1 1-11.75 11.06L137.28 95.4v69.64a19.62 19.62 0 1 1-16.13-.57V94.2a19.61 19.61 0 0 1-10.65-25.73L81.46 39.44 4.83 116.08a16.49 16.49 0 0 0 0 23.32L116.6 251.17a16.49 16.49 0 0 0 23.32 0l111.25-111.25a16.5 16.5 0 0 0 0-23.33" fill="#DE4C36"/></symbol><symbol id="github-icon" viewBox="0 0 1000 1000"><path d="M500 10C229.4 10 10 235.1 10 512.5c0 222 140.4 410.2 335.1 476.7 3.1.7 5.7.9 8.3.9 18.2 0 25.2-13.3 25.2-24.9 0-12-.4-43.5-.7-85.5-18.4 4.2-34.8 5.9-49.4 5.9-94.3 0-115.7-73.3-115.7-73.3-22.3-58-54.5-73.5-54.5-73.5-42.7-30-.2-30.8 3.1-30.8h.2c49.2 4.4 75 52.1 75 52.1 24.5 42.9 57.3 54.9 86.6 54.9 23 0 43.8-7.4 56-13.1 4.4-32.4 17.1-54.5 31.1-67.2-108.7-12.7-223.1-55.8-223.1-248.3 0-54.9 19-99.8 50.3-134.8-5-12.7-21.9-63.9 4.8-133 0 0 3.5-1.1 10.9-1.1 17.7 0 57.8 6.8 123.8 52.7 39.2-11.2 80.9-16.6 122.7-16.8 41.6.2 83.6 5.7 122.7 16.8 66.1-45.9 106.1-52.7 123.8-52.7 7.4 0 10.9 1.1 10.9 1.1 26.7 69.1 9.8 120.3 4.8 133 31.3 35.2 50.3 80.1 50.3 134.8 0 192.9-114.6 235.4-223.8 247.8 17.5 15.5 33.3 46.2 33.3 93 0 67.2-.7 121.4-.7 137.8 0 11.8 6.8 25.2 24.9 25.2 2.6 0 5.7-.2 8.8-.9C849.8 922.6 990 734.3 990 512.5 990 235.1 770.6 10 500 10zM328.5 920.2c4.8 0 9.6-.2 14.7-.4 0 6.1 0 12 .2 17.3 0 5.3 0 10.1.2 14.2a441 441 0 0 1-96.5-50.3c21.5 11.6 48.4 19.2 81.4 19.2zm24.9-159.4c-1.7 4.8-3.3 9.8-4.6 15.1-7.4 2.2-16.4 3.9-25.6 3.9-23.8 0-41.6-11.8-56-37-5.3-10.1-14.9-23.4-28.2-35.7 36.8 30.9 79.4 45.8 114.4 53.7zm415.7 128.8c-34.6 26-72.2 46.6-111.6 61.7V826.8c0-27.1-4.6-49.2-10.9-66.7 81.4-18.2 201.3-73.7 201.3-274.3 0-53.8-15.5-101.7-46.4-142.4 6.8-28.2 12-77.9-11.2-137.8l-5.9-15.5-15.8-5.3c-3.3-1.1-10.5-2.8-21.9-2.8-25.2 0-67.6 9-130.2 49.9-37.2-9.2-76.1-14-116.2-14h-.5c-40 0-79.2 4.8-116.2 14C321 191 278.6 182 253.4 182c-11.4 0-18.6 2-21.9 3.1l-15.8 5.3-5.9 15.5c-23.2 60.2-17.9 109.8-11.2 137.8-30.8 40.9-46.4 88.8-46.4 142.4 0 108.5 35 174.8 80.1 215.5-17.5-14.6-40.5-26.6-68.1-28.6h-2.9c-28.7 0-48.8 11.8-55.1 32.2-10.3 32.4 21.4 54.7 31.9 62.1l1.1 1.3 3.3 1.3c3.5 2.2 22.1 15.3 37 53.6 4.4 13.6 13.8 31.7 29.8 48.6a464.27 464.27 0 0 1-76.3-83.3c-57.6-80.5-88-176.1-88-276.3 0-63.2 12-124.5 35.9-182.2 23-55.8 55.8-105.7 97.8-148.5 41.8-42.9 90.6-76.6 144.6-100C379.2 57.5 438.8 45 500 45s120.8 12.3 176.8 36.5c54.3 23.4 102.8 57.1 144.6 100s74.8 93 97.8 148.5C943 387.8 955 449 955 512.3c0 100.2-30.2 195.8-87.7 276.3a463.65 463.65 0 0 1-98.2 101z"/></symbol><symbol id="gulp"><g fill="#DA4648" fill-rule="evenodd"><path d="M86.72 304.74c-22.57 0-40.02-3.4-48.4-5.41a93.05 93.05 0 0 1-13.85-4.28l11.2 19.1 4.37 59.73c0 6.7 21.27 12.12 47.5 12.12s47.5-5.43 47.5-12.12l3.47-60.37 10.58-18.52a92.08 92.08 0 0 1-13.97 4.34c-8.38 2.02-25.83 5.4-48.4 5.4Zm62.74-194.33c-16.57 2.31-38.56 3.59-61.92 3.59s-45.35-1.28-61.92-3.59c-8.2-1.14-14.7-2.5-19.3-4.02-1.1-.36-2.95-.98-4.74-1.96l10.27 94.47a92.35 92.35 0 0 1 5.78-14.6 86.2 86.2 0 0 1 5.16-8.99 69.48 69.48 0 0 1 5.95-7.79 47.48 47.48 0 0 1 6.47-6.12 30.8 30.8 0 0 1 6.7-4 16.99 16.99 0 0 1 6.7-1.45c2.55 0 5.02.7 7.4 2.1 2.38 1.39 4.6 3.64 6.68 6.76.48.7.78 1.4.9 2.12.13.71.2 1.38.2 2.01 0 1.5-.36 2.68-1.08 3.54a3.21 3.21 0 0 1-2.54 1.3c-.9 0-1.73-.48-2.5-1.43-.77-.94-1.63-2.3-2.58-4.05a9.8 9.8 0 0 0-2.97-3.46 6.24 6.24 0 0 0-3.5-1.07c-1.97 0-4.06.81-6.29 2.44a36.5 36.5 0 0 0-6.61 6.44 70.61 70.61 0 0 0-6.29 9.16c-2 3.43-3.77 6.95-5.32 10.55a75.36 75.36 0 0 0-3.67 10.65 37.85 37.85 0 0 0-1.37 9.44c0 .93.07 1.88.2 2.86.12.98.36 1.86.7 2.66.36.8.83 1.45 1.44 1.97.6.51 1.36.77 2.29.77 1.03 0 2.2-.35 3.53-1.05 1.31-.7 2.68-1.6 4.1-2.73a51.48 51.48 0 0 0 4.26-3.84 68.31 68.31 0 0 0 7.27-8.53 24.88 24.88 0 0 0 2.14-3.51l3.9-11.7a5.5 5.5 0 0 1 1.88-2.69c.77-.53 1.56-.8 2.37-.8.4 0 .79.07 1.18.2a2.98 2.98 0 0 1 1.79 1.72c.18.45.27.97.27 1.57 0 1.6-.14 3.09-.42 4.48a35.6 35.6 0 0 1-1.07 4.08 70.34 70.34 0 0 1-1.45 4 98.95 98.95 0 0 0-1.56 4.22c-.1.16-.31.68-.6 1.56a247.92 247.92 0 0 0-2.44 7.77l-1.52 5.02a408.41 408.41 0 0 0-2.77 9.49 1259.14 1259.14 0 0 0-1.4 4.93 11.67 11.67 0 0 1-1.77 3.6 6.71 6.71 0 0 1-1.39 1.44c-.5.39-1.02.58-1.55.58-.9 0-1.55-.3-1.96-.9-.4-.6-.6-1.69-.6-3.28v-.7c0-.23 0-.48.03-.74.03-.54.24-1.53.63-3a291.07 291.07 0 0 1 3.17-10.68l1.71-5.29a83.67 83.67 0 0 1-4.83 4.95 52.13 52.13 0 0 1-5.34 4.43 31.65 31.65 0 0 1-5.5 3.21 13.03 13.03 0 0 1-5.34 1.25 9.55 9.55 0 0 1-5.07-1.3c-.25-.15-.5-.33-.73-.5l5.7 59.89c1.5 3.72 29.49 12.88 66.4 12.88 36.93 0 64.93-9.17 66.4-12.9l8.2-71.2-1.97 1.83a86.05 86.05 0 0 1-6.67 5.65 30.05 30.05 0 0 1-6.11 3.66c-1.99.86-4.12 1.29-6.39 1.29-2.13 0-3.77-.47-4.94-1.4a4.64 4.64 0 0 1-1.74-3.83v-.37a9.05 9.05 0 0 1 1.35-3.86c.75-1.3 1.66-2.64 2.73-4.03 1.06-1.4 2.2-2.8 3.4-4.23a195.7 195.7 0 0 0 3.34-4.06 39.18 39.18 0 0 0 2.54-3.5 5.27 5.27 0 0 0 1.01-2.6c0-.4-.14-.7-.42-.94-.28-.23-.74-.35-1.38-.35-1.13 0-2.28.3-3.47.87-1.2.58-2.37 1.36-3.53 2.34-1.16.98-2.3 2.1-3.4 3.36a49.57 49.57 0 0 0-5.76 8.04 57.77 57.77 0 0 0-2.76 5.35l-1 2.24c-.37.83-.75 1.69-1.16 2.56-.4.88-.78 1.72-1.11 2.5l-.9 2.08a47.2 47.2 0 0 1-.57 1.27c-.14.3-.38.87-.7 1.7a331.72 331.72 0 0 0-2.43 6.42 975.1 975.1 0 0 0-2.38 6.37c-.3.83-.5 1.4-.59 1.69-.28.86-.6 1.67-.98 2.44-.38.76-.82 1.43-1.3 2.02a5.96 5.96 0 0 1-1.69 1.39 4.3 4.3 0 0 1-2.12.52 4.14 4.14 0 0 1-2.5-.72c-.66-.48-.99-1.4-.99-2.76 0-.67.09-1.35.25-2.04.17-.7.38-1.39.63-2.07l.78-1.99c.27-.65.51-1.27.74-1.87 1.51-3.32 3.05-6.64 4.62-9.98 1.57-3.33 3.07-6.63 4.52-9.9l.87-2.03-.26.26a55.79 55.79 0 0 1-5.44 4.66 28.87 28.87 0 0 1-5.38 3.2c-1.78.8-3.51 1.2-5.2 1.2a6.7 6.7 0 0 1-2.87-.55 4.8 4.8 0 0 1-1.85-1.49 5.96 5.96 0 0 1-.99-2.24c-.07-.3-.1-.6-.15-.91-.5.38-.99.76-1.49 1.11a30.17 30.17 0 0 1-5.13 2.96c-1.67.75-3.19 1.12-4.53 1.12a4.3 4.3 0 0 1-3.28-1.34c-.84-.9-1.26-2.43-1.26-4.58 0-1.53.22-3.3.67-5.33-.73 1.3-1.64 2.6-2.73 3.93a23.95 23.95 0 0 1-3.74 3.64 18.69 18.69 0 0 1-4.7 2.66 15.44 15.44 0 0 1-5.68 1.02c-.92 0-1.81-.12-2.67-.35a5.6 5.6 0 0 1-3.8-3.46 9.35 9.35 0 0 1-.59-3.56l.17-1.52c.11-.97.47-2.52 1.07-4.62.6-2.11 1.53-4.84 2.8-8.2 1.26-3.34 3.03-7.4 5.33-12.19a6.72 6.72 0 0 1 2.04-2.7 4.23 4.23 0 0 1 4.9-.1c.36.24.65.56.88.94.22.38.33.82.33 1.32 0 .33-.04.64-.12.94-.14.57-.44 1.3-.9 2.22-.47.91-1 1.95-1.63 3.13a293.7 293.7 0 0 0-1.95 3.81 54.34 54.34 0 0 0-1.91 4.23 42.24 42.24 0 0 0-1.51 4.46 19.2 19.2 0 0 0-.72 4.4c0 .6.14 1.15.42 1.64.28.5.75.75 1.39.75 1.82 0 3.56-.6 5.21-1.8a23.16 23.16 0 0 0 4.58-4.45 42.77 42.77 0 0 0 3.8-5.72 72.4 72.4 0 0 0 2.84-5.6c.53-1.13 1-2.34 1.4-3.63.41-1.3.86-2.5 1.33-3.59.48-1.1 1.02-2 1.64-2.74a2.9 2.9 0 0 1 2.31-1.09c1.01 0 1.8.38 2.4 1.15.59.76.88 1.67.88 2.73 0 .6-.19 1.42-.57 2.47a70.18 70.18 0 0 1-1.43 3.58c-.57 1.34-1.2 2.78-1.87 4.3a75.54 75.54 0 0 0-1.87 4.66 46.12 46.12 0 0 0-1.42 4.63c-.38 1.5-.57 2.91-.57 4.2 0 1.2.61 1.8 1.85 1.8.86 0 1.94-.3 3.23-.9 1.3-.6 2.64-1.44 4.06-2.51l1.06-.85c.4-1.63.86-3.13 1.4-4.5.98-2.6 1.97-5.16 2.98-7.72l2.77-7.02 12.74-32.1c.5-1.3 1.18-2.2 2.03-2.74.86-.53 1.72-.8 2.59-.8.87 0 1.66.29 2.37.85.72.57 1.07 1.48 1.07 2.74 0 .6-.11 1.23-.35 1.89a22.9 22.9 0 0 1-.9 2.14 807.87 807.87 0 0 0-9.01 21.38l-3.41 8.39a1011.58 1011.58 0 0 0-5.61 14.08c-.31.76-.61 1.65-.9 2.67a9.8 9.8 0 0 0-.45 2.7c0 .5.09.9.25 1.2.17.3.5.45.97.45.59 0 1.32-.2 2.2-.62.89-.42 1.84-.97 2.86-1.65a45.66 45.66 0 0 0 3.2-2.33 99.15 99.15 0 0 0 9.1-8.2c.18-.18.4-.32.64-.42.47-1.41.9-2.8 1.29-4.15l.92-2.54c.4-1.1.84-2.17 1.35-3.24.5-1.06 1.07-1.98 1.7-2.76.63-.78 1.3-1.17 2.04-1.17 1.12 0 1.93.26 2.43.77.5.52.76 1.27.76 2.27 0 .2-.03.51-.08.94a33.14 33.14 0 0 1-.49 2.74c-.1.43-.19.75-.27.95a56.64 56.64 0 0 1 3.36-3.36 34.59 34.59 0 0 1 3.74-3.01c1.3-.9 2.6-1.63 3.95-2.2 1.35-.56 2.7-.84 4.04-.84.92 0 1.84.13 2.75.4.9.26 1.72.65 2.44 1.17.71.51 1.3 1.16 1.74 1.94.45.78.67 1.68.67 2.71 0 1.36-.34 2.81-1.03 4.36a31.55 31.55 0 0 1-2.58 4.65 58.26 58.26 0 0 1-3.36 4.56c-1.2 1.47-2.33 2.81-3.39 4.03a343.6 343.6 0 0 0-2.64 3.08c-.72.85-1.09 1.42-1.12 1.72 0 .4.13.72.38.97s.67.38 1.26.38c.48 0 1.18-.27 2.1-.8.93-.53 2.22-1.45 3.89-2.76 1.67-1.31 3.78-3.07 6.35-5.28 1.75-1.51 3.81-3.32 6.13-5.37l11.12-102.93c-1.8 1-3.66 1.61-4.75 1.97-4.6 1.52-11.1 2.88-19.3 4.02ZM87.47 86c-48.04 0-87 5.37-87 12s38.96 12 87 12c48.05 0 87-5.37 87-12s-38.95-12-87-12Zm34.74 15.5c0 1.56-4.63 2.82-10.34 2.82-5.7 0-10.34-1.26-10.34-2.81 0-1.56 4.63-2.82 10.34-2.82s10.34 1.26 10.34 2.82Z"/><path d="M103.63 100.25a.47.47 0 0 0-.08.25c0 1 3.73 1.82 8.32 1.82 4.6 0 8.32-.81 8.32-1.82l10.88-44.08 43.23-45.64a.88.88 0 0 0 .04-.04c.91-1.04-.94-4.24-4.02-6.99-3.08-2.75-6.41-3.68-7.44-2.63l-.03.02-46.13 48.54-13.1 50.57Z"/></g></symbol><symbol id="html" preserveAspectRatio="xMidYMid"><path d="m255.55 70.77-23.24 260.36-104.47 28.96-104.18-28.92L.45 70.77h255.1Z" fill="#E44D26"/><path d="m128 337.95 84.42-23.4 19.86-222.5H128v245.9Z" fill="#F16529"/><path d="M82.82 155.93H128V124H47.92l.76 8.57 7.85 88.01H128v-31.93H85.74l-2.92-32.7Zm7.2 80.61H57.96l4.47 50.15 65.42 18.16.15-.04v-33.23l-.14.04-35.57-9.6-2.27-25.48Z" fill="#EBEBEB"/><path d="M24.18 0h16.23v16.04h14.85V0h16.23v48.56H55.26V32.3H40.4v16.26H24.18V0Zm68.65 16.1H78.54V0h44.82v16.1h-14.3v32.46H92.83V16.1ZM130.47 0h16.92l10.41 17.06L168.2 0h16.93v48.56h-16.16V24.49L157.8 41.76h-.28l-11.17-17.27v24.07h-15.88V0Zm62.74 0h16.23v32.5h22.83v16.06H193.2V0Z"/><path d="M127.89 220.57h39.33L163.5 262l-35.62 9.62v33.22l65.47-18.14.48-5.4 7.5-84.08.79-8.57h-74.24v31.93Zm0-64.72v.08h77.14l.64-7.18 1.46-16.19.76-8.57h-80v31.86Z" fill="#FFF"/></symbol><symbol id="jest" viewBox="0 0 256 283" preserveAspectRatio="xMidYMid"><path d="M240 139a26 26 0 0 0-29-26L247 6H93l37 107h-2a26 26 0 0 0-8 51 115 115 0 0 1-58 49c-16-8-23-26-16-42l2-6a26 26 0 1 0-21-4c-7 15-16 30-19 48-4 22 0 45 18 58 44 30 91-19 141-31 18-5 37-4 53-13 12-7 20-19 22-31 2-13-1-26-8-36 4-4 6-10 6-17Zm-86 0c0-9-5-18-12-22l28-58 29 58c-7 5-12 13-12 22v1l-33-1Z" fill="#C63D14"/><path d="M246 139c0-16-11-29-26-32L256 0H84l37 107a33 33 0 0 0-10 60 110 110 0 0 1-48 39c-12-7-17-21-12-33l1-1 1-2a33 33 0 1 0-34-7l-4 7c-5 11-11 24-14 38-4 29 3 51 22 64 11 8 22 11 34 11 21 0 43-11 64-22 16-7 31-15 47-19l18-3c13-2 26-4 37-11a51 51 0 0 0 19-72c3-5 4-11 4-17Zm-12 0a20 20 0 1 1-40 0 20 20 0 0 1 40 0Zm4-126-32 94-4 2-32-65-31 64-5-1-32-94h136ZM128 119a20 20 0 1 1 0 40 20 20 0 0 1 0-40Zm-86 1a20 20 0 1 1 0 39 20 20 0 0 1 0-39Zm194 71c-2 11-9 20-19 26-9 6-21 7-33 9l-19 3c-17 5-33 13-49 21-32 16-60 29-86 11-19-13-18-37-16-51a129 129 0 0 1 16-40l8 2c-5 18 3 38 21 47l3 1 3-1c14-5 27-13 39-24 7-7 14-15 19-23a33 33 0 0 0 38-33c0-10-5-18-11-24l20-42 21 43a33 33 0 0 0 41 50c4 8 5 16 4 25Z" fill="#FFF"/></symbol><symbol id="jquery"><path d="M1.534 5.874c-2.123 3.05-1.86 7.017-.237 10.256.037.079.078.154.118.229.023.052.049.1.077.149.013.028.031.057.047.083.026.052.054.102.081.152l.157.265c.029.049.057.097.09.146.055.094.12.187.177.281.026.039.05.078.079.117a6.36 6.36 0 0 0 .31.444c.078.107.156.211.24.315.027.038.057.076.085.114l.221.269c.027.031.054.067.083.099.098.118.202.233.306.349 0 .002.003.004.005.007a3.13 3.13 0 0 0 .424.44c.08.082.16.164.245.244l.101.097c.111.104.222.208.339.308.002 0 .003.002.005.003l.057.05c.102.089.205.178.31.26l.125.105c.085.068.173.133.26.2l.136.104c.093.07.192.139.287.207.035.025.07.05.106.073l.029.023.281.185.12.08c.147.094.293.183.438.271.042.021.084.044.123.068.108.062.22.125.329.183.06.034.122.063.184.094.075.042.153.083.233.125a.324.324 0 0 1 .056.023c.033.015.064.031.096.047.12.06.245.117.375.174.024.01.05.02.076.034.144.063.288.123.437.182.034.01.07.027.105.04.135.051.274.103.411.152l.05.018c.153.052.304.102.459.15.036.01.073.023.111.033.159.048.313.105.473.136 10.26 1.87 13.242-6.169 13.242-6.169-2.505 3.262-6.95 4.122-11.16 3.165-.156-.036-.312-.086-.469-.132a13.522 13.522 0 0 1-.567-.181l-.062-.024c-.136-.046-.267-.097-.4-.148a1.613 1.613 0 0 0-.11-.041c-.147-.059-.29-.12-.432-.183-.031-.01-.057-.024-.088-.036a23.41 23.41 0 0 1-.361-.17 1.483 1.483 0 0 1-.106-.052c-.094-.044-.188-.094-.28-.142a3.942 3.942 0 0 1-.187-.096c-.113-.06-.226-.125-.339-.187-.034-.024-.073-.044-.112-.066a15.902 15.902 0 0 1-.438-.269 2.104 2.104 0 0 1-.118-.079 6.002 6.002 0 0 1-.312-.206c-.035-.023-.067-.048-.103-.073a9.541 9.541 0 0 1-.294-.212c-.042-.034-.087-.066-.132-.1-.088-.069-.177-.135-.265-.208l-.118-.094a10.58 10.58 0 0 1-.334-.281.258.258 0 0 0-.037-.03l-.347-.316-.1-.094c-.082-.083-.166-.163-.25-.245l-.097-.1a9.07 9.07 0 0 1-.309-.323l-.015-.016a17.944 17.944 0 0 1-.313-.354c-.027-.031-.052-.064-.08-.097l-.226-.277a21.248 21.248 0 0 1-.34-.448C2.16 11.786 1.315 7.386 3.184 3.777m4.937-.472c-1.539 2.209-1.452 5.163-.254 7.499a9.1 9.1 0 0 0 .677 1.132c.23.33.484.72.792.986.107.122.223.24.344.359l.09.09c.114.11.231.218.35.325l.015.013a9.855 9.855 0 0 0 .414.342c.034.023.063.05.096.073.14.108.281.212.427.315l.015.009c.062.045.128.086.198.13.028.018.06.042.09.06.106.068.21.132.317.197.017.007.032.016.048.023.09.055.188.108.282.157.033.02.065.035.099.054.067.033.133.068.197.102l.032.014c.135.066.273.128.408.19.034.013.063.024.092.038.111.048.224.094.335.137.05.017.097.037.144.052.102.038.209.073.31.108l.14.045c.146.045.294.104.448.129 7.92 1.313 9.754-4.787 9.754-4.787-1.651 2.376-4.846 3.508-8.251 2.624a8.03 8.03 0 0 1-.448-.13c-.048-.013-.09-.028-.136-.042-.104-.036-.211-.071-.312-.109l-.144-.054c-.112-.045-.226-.087-.335-.135-.034-.015-.065-.025-.091-.04-.14-.063-.281-.125-.417-.192l-.206-.107-.119-.06a5.67 5.67 0 0 1-.265-.15.62.62 0 0 1-.062-.034c-.106-.066-.216-.13-.317-.198-.034-.019-.065-.042-.097-.062l-.208-.136c-.144-.1-.285-.208-.427-.312-.032-.029-.063-.053-.094-.079-1.497-1.177-2.678-2.786-3.238-4.608-.59-1.894-.46-4.018.559-5.742m4.287-.147c-.908 1.332-.995 2.986-.37 4.455.664 1.56 2.022 2.785 3.604 3.365.065.025.128.046.195.07l.088.027c.092.029.185.063.28.084 4.376.844 5.56-2.247 5.879-2.701-1.042 1.496-2.789 1.855-4.932 1.334a4.844 4.844 0 0 1-.516-.16 6.344 6.344 0 0 1-.617-.254 6.521 6.521 0 0 1-1.08-.66c-1.92-1.454-3.109-4.23-1.857-6.491"/></symbol><symbol id="js" viewBox="0 0 504 504"><path d="M452.2 251.6c-9.2 58.5-27.1 75.6-58.8 114.9-31.7 33.3-77.3 88.9-141.9 85.8-58.5-9.2-75.6-27.1-114.9-58.8-33.3-31.7-88.9-77.3-85.8-141.9 9.2-58.5 27.1-75.6 58.8-114.9 31.7-33.3 77.3-88.9 141.9-85.8 58.5 9.2 75.6 27.1 114.9 58.8 33.3 31.7 88.9 77.3 85.8 141.9z" fill="#3765AF"/><path d="M251.6 368.5c-3.1 0-6.2-.8-8.9-2.4l-28.2-16.7c-4.2-2.4-2.2-3.2-.8-3.7 5.6-2 6.8-2.4 12.8-5.8.6-.4 1.5-.2 2.1.2l21.7 12.9c.8.4 1.9.4 2.6 0l84.5-48.8c.8-.4 1.3-1.4 1.3-2.3v-97.5c0-1-.5-1.8-1.3-2.3l-84.5-48.7c-.8-.5-1.8-.5-2.6 0l-84.4 48.7c-.8.5-1.3 1.4-1.3 2.3v97.5c0 .9.5 1.8 1.3 2.3l23.1 13.4c12.6 6.3 20.2-1.1 20.2-8.5v-96.3c0-1.4 1.1-2.4 2.5-2.4h10.7c1.3 0 2.4 1.1 2.4 2.4V309c0 16.8-9.1 26.4-25 26.4-4.9 0-8.7 0-19.5-5.3l-22.2-12.8c-5.5-3.2-8.9-9.1-8.9-15.4v-97.5c0-6.3 3.4-12.2 8.9-15.4l84.5-48.8c5.3-3 12.5-3 17.8 0l84.5 48.8c5.5 3.2 8.9 9.1 8.9 15.4v97.5c0 6.3-3.4 12.2-8.9 15.4l-84.5 48.8c-2.6 1.5-5.7 2.4-8.8 2.4z" fill="#FFF"/><path d="M277.7 301.3c-37 0-44.7-17-44.7-31.2 0-1.4 1.1-2.4 2.4-2.4h10.9c1.2 0 2.2.9 2.4 2.1 1.6 11.1 6.6 16.7 28.9 16.7 17.8 0 25.4-4 25.4-13.5 0-5.4-2.1-9.5-29.8-12.2-23.1-2.3-37.4-7.4-37.4-25.9 0-17 14.4-27.2 38.5-27.2 27.1 0 40.5 9.4 42.2 29.5.1.7-.2 1.4-.6 1.9-.5.5-1.1.8-1.8.8h-11c-1.1 0-2.1-.8-2.4-1.9-2.6-11.7-9-15.4-26.4-15.4-19.4 0-21.7 6.8-21.7 11.8 0 6.1 2.7 7.9 28.9 11.4 26 3.4 38.3 8.3 38.3 26.5 0 18.4-15.4 29-42.1 29z" fill="#FFF"/></symbol><symbol id="location" viewBox="0 0 368.67 368.67"><g style="enable-background:new 0 0 368.666 368.666"><path d="M184.33 0c-82.32 0-149.3 66.97-149.3 149.3 0 33.97 11.14 65.96 32.2 92.51C94.5 276.2 173.8 357.83 177.16 361.3l7.17 7.38 7.17-7.38c3.37-3.46 82.7-85.11 109.97-119.5a147.4 147.4 0 0 0 32.16-92.5C333.63 66.98 266.66 0 184.33 0zM285.8 229.35c-21.96 27.7-80.92 89.28-101.47 110.59-20.54-21.3-79.48-82.88-101.43-110.56a127.63 127.63 0 0 1-27.86-80.08c0-71.3 58-129.3 129.3-129.3 71.29 0 129.29 58 129.29 129.3 0 29.4-9.63 57.1-27.83 80.05z"/><path d="M184.33 59.27c-48.73 0-88.37 39.64-88.37 88.37 0 48.73 39.64 88.37 88.37 88.37s88.38-39.64 88.38-88.37-39.65-88.37-88.38-88.37zm0 156.74a68.45 68.45 0 0 1-68.37-68.37c0-37.7 30.67-68.38 68.37-68.38s68.38 30.68 68.38 68.38A68.45 68.45 0 0 1 184.33 216z"/></g></symbol><symbol id="mail" viewBox="0 0 32 32"><g style="enable-background:new 0 0 32 32"><path d="m16 16.8 13.8-9.2C29.2 5.5 27.3 4 25 4H7C4.7 4 2.8 5.5 2.2 7.6L16 16.8z"/><path d="M16.6 18.8c-.2.1-.4.2-.6.2s-.4-.1-.6-.2L2 9.9V23c0 2.8 2.2 5 5 5h18c2.8 0 5-2.2 5-5V9.9l-13.4 8.9z"/></g></symbol><symbol id="materialize" viewBox="0 -62.5 256 256" preserveAspectRatio="xMidYMid"><g stroke-width=".094"><path d="M63.182 4.2c.926-1.575 2.13-3.088 3.86-3.83.71-.123 1.42-.061 2.13-.061h34.957c-1.019.864-2.007 1.76-2.686 2.933-1.791 2.934-2.996 6.207-4.107 9.48-3.15 9.883-5.343 20.042-7.474 30.202a729.834 729.834 0 0 0-2.748 13.835c-2.656 15.07-5.404 30.108-8.832 45.023-1.636 6.887-3.304 13.773-5.836 20.412-1.174 2.749-2.316 5.682-4.57 7.72-.525.464-1.05 1.05-1.792.958h-30.88c-2.1-.062-4.169.123-6.269-.093 1.39-1.08 2.625-2.378 3.428-3.922 2.316-4.416 3.767-9.202 5.157-13.958 2.162-7.658 3.89-15.409 5.528-23.16 1.019-5.095 2.223-10.16 2.964-15.286.834-5.713 2.1-11.364 3.119-17.046 1.606-8.369 3.304-16.737 5.188-25.044 1.513-6.485 3.057-12.94 5.126-19.27 1.02-3.057 2.13-6.083 3.737-8.893Z" stroke="#EB7077" fill="#EB7077"/><path d="M104.13.309c.895 0 1.79-.031 2.686 0 1.976 1.05 3.644 2.717 4.57 4.786 1.235 2.347 2.255 4.818 3.18 7.35 3.089 9.542 5.189 19.362 7.289 29.151 1.79 8.77 3.49 17.571 5.095 26.403.124.463-.03 1.112.587 1.235-2.224 11.611-4.416 23.253-7.195 34.772-1.514 6.207-3.12 12.383-5.404 18.374-1.236 2.995-2.502 6.268-5.127 8.4-1.667.37-2.872-.896-3.89-2.039-1.76-2.254-2.842-4.91-3.892-7.566-3.49-9.51-5.62-19.423-7.781-29.305-1.637-7.69-3.089-15.44-4.602-23.16-.68-3.923-1.605-7.783-2.13-11.704-.093-.062-.31-.186-.402-.247a729.834 729.834 0 0 1 2.748-13.835c2.131-10.16 4.324-20.32 7.474-30.201 1.111-3.274 2.316-6.547 4.107-9.48.68-1.174 1.667-2.07 2.686-2.934Z" stroke="#F6A2AD" fill="#F6A2AD"/><path d="M142.76 5.651c1.113-2.13 2.471-4.508 4.88-5.311C159.9.278 172.16.309 184.419.309c-1.143 1.142-2.347 2.285-3.12 3.736-2.377 4.262-3.767 8.987-5.187 13.65-3.644 12.846-6.207 25.97-8.647 39.094-2.254 12.94-4.663 25.878-7.411 38.756-1.42 6.484-2.903 12.938-4.786 19.33-1.205 3.953-2.47 7.937-4.447 11.612-.958 1.667-2.07 3.49-3.891 4.354-11.704.093-23.439 0-35.142.03-.649 0-1.328 0-1.977-.092 2.625-2.13 3.891-5.404 5.127-8.4 2.285-5.99 3.89-12.166 5.404-18.373 2.779-11.519 4.971-23.16 7.195-34.772 2.686-14.977 5.497-29.954 9.079-44.746 1.667-6.392 3.273-12.877 6.145-18.837Z" stroke="#EB7077" fill="#EB7077"/><path d="M184.419.309c.988 0 2.007-.031 2.995 0 1.606.834 2.749 2.254 3.768 3.705 1.667 2.656 2.717 5.652 3.798 8.585 2.563 7.875 4.478 15.966 6.238 24.056 2.347 10.901 4.385 21.864 6.392 32.826.494 2.625.988 5.28 1.297 7.937l.463.463c-1.111 1.544-1.544 3.397-2.161 5.157-1.946 6.269-3.212 12.754-4.293 19.208-.833 5.064-1.976 10.098-3.551 14.977-1.173 3.613-2.594 7.195-4.94 10.221-1.113 1.452-2.626 2.563-4.293 3.304-2.563.278-4.077-2.192-5.312-4.014-2.563-4.478-3.952-9.48-5.435-14.36-4.879-18.065-8.06-36.562-11.487-54.936a.812.812 0 0 0-.433-.649c2.44-13.124 5.003-26.248 8.647-39.094 1.42-4.663 2.81-9.388 5.188-13.65.772-1.451 1.976-2.594 3.119-3.736ZM.03 70.562c.804-.062 1.607-.185 2.44-.185h33.66c1.42.185 2.903.062 4.262.68a12.143 12.143 0 0 1 5.033 3.86c.155-.093.433-.34.587-.464-.741 5.126-1.945 10.19-2.964 15.286-1.637 7.751-3.366 15.502-5.528 23.16-1.39 4.756-2.841 9.542-5.157 13.958-.803 1.544-2.038 2.841-3.428 3.922-.525.093-.926-.278-1.359-.556-1.451-.926-2.285-2.532-3.18-3.983-4.231-9.635-4.694-20.289-7.319-30.356-1.328-5.033-2.965-10.036-5.373-14.668-1.483-2.78-3.304-5.435-5.682-7.566-1.76-1.42-3.799-2.563-5.991-3.088Z" stroke="#F6A2AD" fill="#F6A2AD"/><path d="M212.088 73.774c1.945-2.193 4.848-3.582 7.782-3.459h25.322c3.52.062 7.071-.123 10.592.093-1.05.71-2.316.988-3.428 1.575-3.86 1.76-7.164 4.693-9.264 8.368-3.366 5.868-4.54 12.6-5.528 19.208-.988 6.485-.957 13.186-3.057 19.486-1.42 4.416-3.582 8.862-7.319 11.765-11.61.124-23.222.031-34.802.062-.772 0-1.513.03-2.254-.124 1.667-.74 3.18-1.852 4.292-3.304 2.347-3.026 3.768-6.608 4.941-10.221 1.575-4.88 2.718-9.913 3.551-14.977 1.081-6.454 2.347-12.94 4.293-19.208.617-1.76 1.05-3.613 2.161-5.157.927-1.359 1.544-2.934 2.718-4.107Z" stroke="#EB7077" fill="#EB7077"/></g></symbol><symbol id="optimization" viewBox="0 0 24 24"><path class="a" d="M3.9 19.5H2.5a2 2 0 0 1-2-2v-15a2 2 0 0 1 2-2h19a2 2 0 0 1 2 2v15a2 2 0 0 1-2 2h-1.51M.5 5.5h23"/><path d="M4 2.25a.75.75 0 1 0 .75.75.75.75 0 0 0-.75-.75Zm3 0a.75.75 0 1 0 .75.75.75.75 0 0 0-.75-.75Zm3 0a.75.75 0 1 0 .75.75.75.75 0 0 0-.75-.75Z"/><circle class="a" cx="12" cy="17.5" r="6"/><path class="a" d="M12 11.5v-3m-1.5 0h3m-6.5 3 1.29 1.29M17 11.5l-1.29 1.29m-3.18 4.18 1.59-1.59"/><path d="M12 16.75a.75.75 0 1 0 .53.22.74.74 0 0 0-.53-.22Z"/></symbol><symbol id="patterns" viewBox="0 0 503.6 503.6"><g style="enable-background:new 0 0 503.607 503.607"><path d="M394 369a25 25 0 1 0 1 51 25 25 0 0 0-1-51z"/><path d="m497 377-12-3c-6-1-10-5-13-10-2-5-1-11 2-16l8-10c3-4 2-8-1-11l-16-17c-3-2-8-3-11-1l-10 7c-5 4-11 4-16 2s-9-7-10-13l-2-13c0-4-4-7-8-7h-23c-4 0-8 3-8 7l-3 16c-2 5-5 10-10 12-6 2-11 2-16-2l-13-9c-4-2-8-1-11 1l-16 17c-3 3-4 7-1 11l8 10c3 5 4 11 2 16-3 5-7 9-13 10l-12 3c-4 0-7 4-7 8v23c0 4 3 8 7 8l13 2c6 1 11 5 13 10s2 11-2 16l-7 10c-2 3-1 8 1 11l17 16c3 3 7 4 11 1l10-8c5-3 11-4 16-2 5 3 9 7 10 13l3 12c0 4 4 7 8 7h23c4 0 8-3 8-8l2-8c1-6 4-11 10-13 5-2 11-2 16 2l7 5c4 3 8 2 11-1l16-16c3-3 4-8 2-11l-7-10c-4-5-4-11-2-16s7-9 13-10l12-2c5 0 8-4 8-8v-23c0-4-3-8-7-8zm-103 59a42 42 0 1 1 1-84 42 42 0 0 1-1 84zM210 42a17 17 0 1 0 0 34 17 17 0 0 0 0-34zm-76 0a17 17 0 1 0 0 34 17 17 0 0 0 0-34zm-75 0a17 17 0 1 0 0 34 17 17 0 0 0 0-34z"/><path d="M480 0H24C11 0 0 11 0 24v77h504V24c0-13-11-24-24-24zM59 92a34 34 0 1 1 0-67 34 34 0 0 1 0 67zm75 0a34 34 0 1 1 0-67 34 34 0 0 1 0 67zm76 0a34 34 0 1 1 0-67 34 34 0 0 1 0 67zM0 477c0 15 12 27 27 27h334l-1-4-2-12-10 8a25 25 0 0 1-33-3l-16-16c-9-9-10-22-3-32l6-10-12-2c-12-2-21-12-21-25v-23c0-12 8-23 20-25l12-2-8-10c-7-10-6-24 3-33l16-16a25 25 0 0 1 32-3l13 9 3-16c2-12 13-20 25-20h23c13 0 23 9 25 21l2 13 10-7a25 25 0 0 1 32 3l16 16c9 9 10 23 3 33l-8 10 12 2 4 1V118H0v359zm176-32h-17a8 8 0 1 1 0-17h17a8 8 0 1 1 0 17zm-17-218h17a8 8 0 1 1 0 16h-17a8 8 0 1 1 0-16zm-67-17a8 8 0 1 1 0-17h118a8 8 0 1 1 0 17H92zm118 84a8 8 0 1 1 0 17H92a8 8 0 1 1 0-17h118zm-17 67h42a8 8 0 1 1 0 17h-42a8 8 0 1 1 0-17zm-34-34h17a8 8 0 1 1 0 17h-17a8 8 0 1 1 0-17zm51 67a8 8 0 1 1 0 17H92a8 8 0 1 1 0-17h118zm42 51h-42a8 8 0 1 1 0-17h42a8 8 0 1 1 0 17zm17-101h-59a8 8 0 1 1 0-17h59a8 8 0 1 1 0 17zm8-33h-34a8 8 0 1 1 0-17h34a8 8 0 1 1 0 17zm0-34h-84a8 8 0 1 1 0-17h84a8 8 0 1 1 0 17zm50-34H210a8 8 0 1 1 0-16h117a8 8 0 1 1 0 16zm51-42c0 5-4 9-9 9H243a8 8 0 1 1 0-17h126c5 0 9 4 9 8zm-67-42h16a8 8 0 1 1 0 17h-16a8 8 0 1 1 0-17zm-118 0h84a8 8 0 1 1 0 17h-84a8 8 0 1 1 0-17zm-143 0h109a8 8 0 1 1 0 17H50a8 8 0 1 1 0-17zm0 34h9a8 8 0 1 1 0 17h-9a8 8 0 1 1 0-17zm0 34h76a8 8 0 1 1 0 16H50a8 8 0 1 1 0-16zm0 33h109a8 8 0 1 1 0 17H50a8 8 0 1 1 0-17zm0 34h9a8 8 0 1 1 0 17h-9a8 8 0 1 1 0-17zm0 33h76a8 8 0 1 1 0 17H50a8 8 0 1 1 0-17zm0 34h109a8 8 0 1 1 0 17H50a8 8 0 1 1 0-17zm0 33h9a8 8 0 1 1 0 17h-9a8 8 0 1 1 0-17zm0 34h76a8 8 0 1 1 0 17H50a8 8 0 1 1 0-17z"/></g></symbol><symbol id="phone"><g style="enable-background:new 0 0 401.998 401.998"><path d="M401.13 311.48c-1.14-3.43-8.37-8.48-21.7-15.13-3.6-2.1-8.75-4.95-15.4-8.57-6.67-3.62-12.72-6.95-18.14-10-5.43-3.04-10.52-6-15.27-8.84-.76-.57-3.14-2.24-7.14-5-4-2.76-7.38-4.8-10.14-6.14a18.7 18.7 0 0 0-8.14-2c-3.8 0-8.56 2.72-14.27 8.14a139.01 139.01 0 0 0-15.7 17.7 172.13 172.13 0 0 1-15.12 17.7c-5.33 5.43-9.72 8.14-13.14 8.14-1.71 0-3.86-.48-6.42-1.42a66.59 66.59 0 0 1-5.86-2.42c-1.33-.68-3.6-2-6.85-4-3.24-2-5.04-3.1-5.42-3.3-26.08-14.46-48.44-31.02-67.1-49.67-18.65-18.66-35.2-41.02-49.67-67.1-.2-.38-1.3-2.19-3.29-5.42-2-3.24-3.33-5.52-4-6.85-.66-1.34-1.47-3.29-2.42-5.86s-1.43-4.7-1.43-6.42c0-3.43 2.71-7.8 8.14-13.14a171.95 171.95 0 0 1 17.7-15.12c6.38-4.76 12.27-10 17.7-15.7 5.42-5.71 8.14-10.47 8.14-14.28 0-2.66-.67-5.37-2-8.13a79.36 79.36 0 0 0-6.14-10.14c-2.76-4-4.43-6.37-5-7.14-2.85-4.75-5.8-9.85-8.85-15.27a1441.4 1441.4 0 0 1-10-18.13 678.9 678.9 0 0 0-8.56-15.42C99 9.23 93.94 2 90.52.85 89.18.3 87.18 0 84.52 0 79.38 0 72.67.95 64.4 2.86c-8.28 1.9-14.8 3.9-19.56 6-9.51 3.99-19.6 15.6-30.26 34.82C4.87 61.57.01 79.28.01 96.78c0 5.13.33 10.13 1 14.99.66 4.85 1.85 10.33 3.57 16.42a233.7 233.7 0 0 0 4.14 13.56c1.04 2.95 3 8.23 5.85 15.84a624.51 624.51 0 0 1 5.14 13.99c6.66 18.65 14.56 35.3 23.7 49.96 15.02 24.37 35.53 49.54 61.51 75.53 25.98 25.98 51.16 46.49 75.52 61.52 14.65 9.14 31.31 17.03 49.97 23.7 1.7.57 6.37 2.28 13.98 5.14 7.62 2.85 12.9 4.8 15.85 5.85 2.94 1.05 7.47 2.43 13.55 4.15 6.1 1.71 11.57 2.9 16.42 3.57 4.86.66 9.86 1 15 1 17.5 0 35.2-4.86 53.1-14.56 19.22-10.66 30.82-20.75 34.82-30.27 2.1-4.76 4.1-11.28 6-19.56 1.9-8.28 2.85-14.98 2.85-20.12.01-2.68-.28-4.67-.85-6.01z"/></g></symbol><symbol id="portfolio" viewBox="0 0 100 100"><path d="M81.23 17H18.77c-3.71 0-6.68 2.43-6.77 5.58v45.74c0 3.13 3 5.68 6.77 5.68H48v11H30.5a1.5 1.5 0 0 0 0 3h39a1.5 1.5 0 0 0 0-3H51V74h30.23C85 74 88 71.45 88 68.32V22.68c0-3.13-3-5.68-6.77-5.68ZM85 68.32c0 1.45-1.73 2.68-3.77 2.68H18.77c-2 0-3.77-1.23-3.77-2.68v-45.7c0-1.44 1.73-2.62 3.77-2.62h62.46c2 0 3.77 1.23 3.77 2.68Z"/><path d="M55.27 36.63a1.5 1.5 0 0 0-2 .65L45.19 53a1.5 1.5 0 1 0 2.67 1.37l8.06-15.75a1.5 1.5 0 0 0-.65-1.99Zm9.59-.55a1.5 1.5 0 0 0-2.12 2.12l7.48 7.47-7.48 7.47a1.5 1.5 0 1 0 2.12 2.12l8.54-8.53a1.5 1.5 0 0 0 0-2.12Zm-26.46 0a1.5 1.5 0 0 0-2.12 0l-8.54 8.54a1.5 1.5 0 0 0 0 2.12l8.54 8.54a1.5 1.5 0 0 0 2.12-2.12l-7.48-7.47 7.48-7.49a1.5 1.5 0 0 0 0-2.12Z"/></symbol><symbol id="pug" viewBox="0 0 347.87 347.87"><g style="enable-background:new 0 0 347.873 347.873"><path d="M64.15 76.6h219.58v34.25H64.15zm0 59.79H214.2v80.22H64.15zm178.78 0h40.8v80.22h-40.8z"/><path d="M337.87 33.94H10a10 10 0 0 0-10 10v210.39a10 10 0 0 0 10 10h114.98c-4.4 21.48-14.6 32.57-14.68 32.65a10 10 0 0 0 7.19 16.96h112.9a10 10 0 0 0 7.18-16.96c-.12-.12-10.28-11.17-14.68-32.65h114.98a10 10 0 0 0 10-10V43.93a10 10 0 0 0-10-10zm-10 210.39h-16.3v-2.82a10 10 0 1 0-20 0v2.82h-10.45v-2.82a10 10 0 1 0-20 0v2.82H20V53.93h307.87v190.4z"/></g></symbol><symbol id="react" viewBox="0 -13 256 256" preserveAspectRatio="xMinYMin meet"><path d="M.754 114.75c0 19.215 18.763 37.152 48.343 47.263-5.907 29.737-1.058 53.706 15.136 63.045 16.645 9.6 41.443 2.955 64.98-17.62 22.943 19.744 46.13 27.514 62.31 18.148 16.63-9.627 21.687-35.221 15.617-65.887 30.81-10.186 48.044-25.481 48.044-44.949 0-18.769-18.797-35.006-47.979-45.052 6.535-31.933.998-55.32-15.867-65.045-16.259-9.376-39.716-1.204-62.996 19.056C104.122 2.205 80.897-4.36 64.05 5.392 47.806 14.795 43.171 39.2 49.097 69.487 20.515 79.452.754 96.057.754 114.75z" fill="#FFF"/><path d="M201.025 79.674a151.364 151.364 0 0 0-7.274-2.292 137.5 137.5 0 0 0 1.124-4.961c5.506-26.728 1.906-48.26-10.388-55.348-11.787-6.798-31.065.29-50.535 17.233a151.136 151.136 0 0 0-5.626 5.163 137.573 137.573 0 0 0-3.744-3.458c-20.405-18.118-40.858-25.752-53.139-18.643-11.776 6.817-15.264 27.06-10.307 52.39a150.91 150.91 0 0 0 1.67 7.484 149.875 149.875 0 0 0-8.363 2.63c-23.922 8.34-39.2 21.412-39.2 34.97 0 14.004 16.4 28.05 41.318 36.566a128.44 128.44 0 0 0 6.11 1.91 147.813 147.813 0 0 0-1.775 8.067c-4.726 24.89-1.035 44.653 10.71 51.428 12.131 6.995 32.491-.195 52.317-17.525 1.567-1.37 3.14-2.823 4.715-4.346a148.34 148.34 0 0 0 6.108 5.573c19.204 16.525 38.17 23.198 49.905 16.405 12.12-7.016 16.058-28.247 10.944-54.078-.39-1.973-.845-3.988-1.355-6.04 1.43-.422 2.833-.858 4.202-1.312 25.904-8.582 42.757-22.457 42.757-36.648 0-13.607-15.77-26.767-40.174-35.168z" fill="#53C1DE"/><path d="M195.406 142.328c-1.235.409-2.503.804-3.795 1.187-2.86-9.053-6.72-18.68-11.442-28.625 4.507-9.71 8.217-19.213 10.997-28.208 2.311.67 4.555 1.375 6.717 2.12 20.91 7.197 33.664 17.84 33.664 26.04 0 8.735-13.775 20.075-36.14 27.486zm-9.28 18.389c2.261 11.422 2.584 21.749 1.086 29.822-1.346 7.254-4.052 12.09-7.398 14.027-7.121 4.122-22.35-1.236-38.772-15.368a138.39 138.39 0 0 1-5.682-5.18c6.367-6.964 12.73-15.06 18.94-24.05 10.924-.969 21.244-2.554 30.603-4.717.46 1.86.87 3.683 1.223 5.466zm-93.85 43.137c-6.957 2.457-12.498 2.527-15.847.596-7.128-4.11-10.09-19.98-6.049-41.265a138.507 138.507 0 0 1 1.65-7.502c9.255 2.047 19.5 3.52 30.45 4.408 6.251 8.797 12.798 16.883 19.396 23.964a118.863 118.863 0 0 1-4.305 3.964c-8.767 7.664-17.552 13.1-25.294 15.835zm-32.593-61.58c-11.018-3.766-20.117-8.66-26.354-14-5.604-4.8-8.434-9.565-8.434-13.432 0-8.227 12.267-18.722 32.726-25.855a139.276 139.276 0 0 1 7.777-2.447c2.828 9.197 6.537 18.813 11.013 28.537-4.534 9.869-8.296 19.638-11.15 28.943a118.908 118.908 0 0 1-5.578-1.746zm10.926-74.37c-4.247-21.703-1.427-38.074 5.67-42.182 7.56-4.376 24.275 1.864 41.893 17.507 1.126 1 2.257 2.047 3.39 3.13-6.564 7.049-13.051 15.074-19.248 23.82-10.627.985-20.8 2.567-30.152 4.686a141.525 141.525 0 0 1-1.553-6.962zm97.467 24.067a306.982 306.982 0 0 0-6.871-11.3c7.21.91 14.117 2.12 20.603 3.601-1.947 6.241-4.374 12.767-7.232 19.457a336.42 336.42 0 0 0-6.5-11.758zm-39.747-38.714c4.452 4.823 8.911 10.209 13.297 16.052a284.245 284.245 0 0 0-26.706-.006c4.39-5.789 8.887-11.167 13.409-16.046zm-40.002 38.78a285.24 285.24 0 0 0-6.378 11.685c-2.811-6.667-5.216-13.222-7.18-19.552 6.447-1.443 13.322-2.622 20.485-3.517a283.79 283.79 0 0 0-6.927 11.384zm7.133 57.683c-7.4-.826-14.379-1.945-20.824-3.348 1.995-6.442 4.453-13.138 7.324-19.948a283.494 283.494 0 0 0 6.406 11.692 285.27 285.27 0 0 0 7.094 11.604zm33.136 27.389c-4.575-4.937-9.138-10.397-13.595-16.27 4.326.17 8.737.256 13.22.256 4.606 0 9.159-.103 13.64-.303-4.4 5.98-8.843 11.448-13.265 16.317zm46.072-51.032c3.02 6.884 5.566 13.544 7.588 19.877-6.552 1.495-13.625 2.699-21.078 3.593a337.537 337.537 0 0 0 6.937-11.498 306.632 306.632 0 0 0 6.553-11.972zm-14.915 7.15a316.478 316.478 0 0 1-10.84 17.49c-6.704.479-13.632.726-20.692.726-7.031 0-13.871-.219-20.458-.646A273.798 273.798 0 0 1 96.72 133.28a271.334 271.334 0 0 1-9.64-18.206 273.864 273.864 0 0 1 9.611-18.216v.002a271.252 271.252 0 0 1 10.956-17.442 273.484 273.484 0 0 1 41.188.006 290.704 290.704 0 0 1 10.887 17.383 316.418 316.418 0 0 1 9.741 18.13 290.806 290.806 0 0 1-9.709 18.29zm19.913-107.792c7.566 4.364 10.509 21.961 5.755 45.038a127.525 127.525 0 0 1-1.016 4.492c-9.374-2.163-19.554-3.773-30.212-4.773-6.209-8.841-12.642-16.88-19.1-23.838a141.92 141.92 0 0 1 5.196-4.766c16.682-14.518 32.273-20.25 39.377-16.153z" fill="#FFF"/><path d="M128.221 94.665c11.144 0 20.177 9.034 20.177 20.177 0 11.144-9.033 20.178-20.177 20.178-11.143 0-20.177-9.034-20.177-20.178 0-11.143 9.034-20.177 20.177-20.177" fill="#53C1DE"/></symbol><symbol id="redux" viewBox="0 -6 256 256" preserveAspectRatio="xMidYMid"><path d="M177.381 169.733c9.447-.978 16.614-9.122 16.288-18.896-.325-9.773-8.47-17.592-18.243-17.592h-.651c-10.1.326-17.918 8.796-17.592 18.895.326 4.887 2.28 9.122 5.212 12.054-11.076 21.828-28.016 37.791-53.426 51.148-17.266 9.122-35.183 12.38-53.1 10.1-14.66-1.955-26.062-8.47-33.23-19.222-10.424-15.963-11.401-33.23-2.605-50.496 6.19-12.38 15.962-21.502 22.152-26.063-1.303-4.235-3.258-11.402-4.235-16.614-47.237 34.207-42.35 80.468-28.016 102.295 10.75 16.29 32.577 26.389 56.684 26.389 6.515 0 13.03-.652 19.546-2.28 41.699-8.145 73.299-32.905 91.216-69.718Zm57.336-40.397c-24.759-28.995-61.245-44.958-102.944-44.958h-5.212c-2.932-5.864-9.122-9.774-15.963-9.774h-.652C99.848 74.93 92.03 83.4 92.355 93.5c.326 9.773 8.47 17.592 18.243 17.592h.651c7.167-.326 13.357-4.887 15.963-11.077h5.864c24.759 0 48.214 7.167 69.39 21.176 16.288 10.751 28.016 24.76 34.531 41.7 5.538 13.683 5.212 27.04-.652 38.443-9.121 17.266-24.432 26.714-44.63 26.714-13.031 0-25.41-3.91-31.926-6.842-3.583 3.258-10.099 8.47-14.66 11.729 14.009 6.515 28.343 10.099 42.025 10.099 31.274 0 54.404-17.267 63.2-34.533 9.447-18.896 8.795-51.474-15.637-79.165ZM69.225 175.27c.326 9.774 8.47 17.592 18.243 17.592h.652c10.099-.325 17.917-8.796 17.591-18.895-.325-9.774-8.47-17.592-18.243-17.592h-.651c-.652 0-1.63 0-2.28.325-13.357-22.153-18.895-46.26-16.94-72.323 1.302-19.547 7.818-36.488 19.22-50.497 9.447-12.054 27.69-17.918 40.07-18.243 34.531-.652 49.19 42.351 50.168 59.618 4.235.977 11.402 3.258 16.289 4.887C189.434 27.366 156.857 0 125.584 0c-29.32 0-56.359 21.176-67.11 52.451-14.985 41.7-5.212 81.771 13.031 113.372-1.628 2.28-2.606 5.864-2.28 9.448Z" fill="#764ABC"/></symbol><symbol id="ru" viewBox="0 0 512 512"><g style="enable-background:new 0 0 512 512"><path style="fill:#103b9b" d="M8.26 200.95h495.48v110.11H8.26z"/><path style="fill:#fff" d="M468.32 90.84H43.68a35.42 35.42 0 0 0-35.42 35.42v74.69h495.48v-74.7a35.42 35.42 0 0 0-35.42-35.41z"/><path style="fill:#ed1f34" d="M8.26 385.74a35.42 35.42 0 0 0 35.42 35.42h424.64a35.42 35.42 0 0 0 35.42-35.42v-74.69H8.26v74.7z"/><path style="fill:#121b21" d="M468.32 82.58H43.68A43.73 43.73 0 0 0 0 126.26v259.48a43.73 43.73 0 0 0 43.68 43.68h424.64A43.73 43.73 0 0 0 512 385.74V126.26a43.72 43.72 0 0 0-43.68-43.68zM43.68 99.1h424.64a27.19 27.19 0 0 1 27.16 27.16v66.43H16.52v-66.43A27.19 27.19 0 0 1 43.68 99.1zm424.64 313.8H43.68a27.19 27.19 0 0 1-27.16-27.16v-66.43h388.13a8.26 8.26 0 1 0 0-16.51H16.51v-93.6h478.96v93.6h-57.8a8.26 8.26 0 1 0 0 16.51h57.8v66.43a27.19 27.19 0 0 1-27.16 27.16z"/></g></symbol><symbol id="russian" viewBox="0 0 512 512"><g style="enable-background:new 0 0 512 512"><path style="fill:#103b9b" d="M8 201h496v110H8z"/><path style="fill:#fff" d="M468 91H44c-20 0-36 16-36 35v75h496v-75c0-19-16-35-36-35z"/><path style="fill:#ed1f34" d="M8 386c0 19 16 35 36 35h424c20 0 36-16 36-35v-75H8v75z"/><path style="fill:#121b21" d="M468 83H44c-24 0-44 19-44 43v260c0 24 20 43 44 43h424c24 0 44-19 44-43V126c0-24-20-43-44-43zM44 99h424c15 0 27 12 27 27v67H17v-67c0-15 12-27 27-27zm424 314H44c-15 0-27-12-27-27v-67h388a8 8 0 1 0 0-16H17v-94h478v94h-57a8 8 0 1 0 0 16h57v67c0 15-12 27-27 27z"/></g></symbol><symbol id="sass" preserveAspectRatio="xMidYMid"><path d="M78.67 179.03c-4.65 2.9-11.66 7.62-17.08 12.74-8.9 8.4-10.76 20.06-6.06 22.78 4.34 2.52 14.48-.47 21.73-8.39 7.62-8.3 10.76-18.84 7.51-30.8l-1.12.67v.02l-.48.28-4.5 2.7Zm130.67-3.77c-2.63 5.72-2.77 7.56-1.97 8.14 3.83-1.38 10.15-4.69 10.2-13.55 0-1.33-.28-2.76-.75-4.25a30.84 30.84 0 0 0-7.48 9.66Zm41.01-17.31c-10.2-1.19-18.18.24-24.36 2.82a29.2 29.2 0 0 1 2.15 9.2c.29 6.87-4.44 11.95-9.36 15.58a31.06 31.06 0 0 1-8.5 4.37c-2.06.87-4.78 1.76-6.72 1.37-4.27-.87-6.54-4.66-3.64-13.03 1.57-4.53 6.1-11.42 13.4-17.36-1.66-3.43-3.52-6.92-4.47-10.13a82.54 82.54 0 0 1-2.42-10.15s-6.02 12.49-13.8 23.84c-.44.66-.89 1.3-1.34 1.95 1.53 3.55 2.73 7.3 2.9 11.08.28 6.86-2.69 12.05-7.62 15.67a31.04 31.04 0 0 1-7.96 4.19c-1.56.68-4.74 1.8-9.26 2.1-2.47.17-4.84.02-6.17-.98-1.83-1.38-2.05-3.09-1.1-5.41.8-1.98 6.78-8.81 11.8-14.8 1.39-1.65 2.7-3.33 3.89-4.9l-.03-.06s.9-1.18 2.38-3.22c-1.83-3.95-4.16-8.06-5.25-11.8-1.86-6.32-2.43-10.14-2.43-10.14s-6.1 15.65-12.46 28.14a403.52 403.52 0 0 1-9.69 18.1l-.01.1s-.22.38-.6.97l-.3.48v-.05c-1.65 2.44-5.35 7.22-9.04 7.22-10.1 0-6.4-20.53-6.4-20.53s-2.95 7.6-6.28 14.13c-2.71 5.32-5.18 9.83-10.59 9.83-1.55 0-4.02-.05-6.07-2-4.64-4.4-8.19-15.6-7.5-24.28.6-7.38 1.74-12.49 3.3-16.75-2.78 1.51-5.99 3.3-9.25 5.22l-5.02 2.96.16.29c4.16 8.03 5.26 25.62-3.79 39.13-9.05 13.51-25.9 21.73-42.32 17.17-5.3-1.48-13.3-12.44-6.4-27.71 6.1-13.47 30.43-26.2 36.84-29.38l1.76-.97C66 159.02 34.08 143.93 29.6 120.75c-1.27-6.52 1.8-22.13 20.95-40.06 16.12-15.09 38.53-26.64 59.24-34 34.8-12.37 71.55-5.07 77.2 17.1 5.57 21.82-13.36 47.91-37.6 57.3-21.63 8.37-39.52 7.04-46.87 4.63-8.36-2.75-13.26-8.26-14.45-11.37-.47-1.22-1.28-3.27 0-3.97.78-.44 1.1-.33 3.2 1.98 1.99 2.2 10.01 8.12 25.26 6.4 40-4.48 64.1-35.58 56.48-52.31-5.33-11.72-36.16-17-74.68 2.2-47.02 23.45-49.57 42.77-49.98 50.11-1.1 20.2 24.9 30.82 38.98 45.83l.54.6L96 160.7c7.1-3.9 13.78-7.55 16.9-9.25 4.95-7.2 15-15.14 22.25-15.14 11.6 0 7.62 16.66 7.62 16.66s.23-.76.55-.77c.33 0 1.6-2.2 5.19-.89 3.68 1.36 2.84 3.94 2.86 4.2.05.52-4.35 15.34-6.17 24.84-.88 4.54-.37 7.84-.11 7.84.36 0 1.1-1.15 1.77-2.4l-.01-.03s.51-.94 1.37-2.63l.17-.35v.02c1.02-1.99 2.44-4.9 4.08-8.51 3.22-7.1 15.51-34.5 16.55-37.53 1.04-3.03 1.59-6.16 2.1-7.5.5-1.35 4.85-2.36 9.92-2.33 5.08.04 5.6 2.2 5.63 2.65.04.45-2.41 6.46-2.98 10.71-.55 4.25-.02 6.37.44 9.94.3 2.33 1.76 5.3 3.49 8.65 5.25-8.6 14.5-25.02 15.38-29.62.6-3.15 1.58-6.17 2.1-7.5.51-1.35 4.85-2.36 9.92-2.33 5.08.04 5.59 2.2 5.63 2.65.03.45-2.42 6.46-2.98 10.71-.56 4.24-.02 6.37.44 9.94.4 3.05 2.76 7.15 5.1 11.82a51.27 51.27 0 0 1 22.7-5.3c3.65-.03 7.89.34 10.07 1.02V80.05c0-4.95-2.54-9.52-6.83-11.99L134.62 1.86a13.78 13.78 0 0 0-13.82 0L6.57 68.03C2.3 70.5 0 75.08 0 80.03v132.46c0 4.95 2.3 9.52 6.58 12L121 290.7a13.64 13.64 0 0 0 13.75 0l114.47-66.23A13.73 13.73 0 0 0 256 212.5v-53.53a37.41 37.41 0 0 0-5.65-1.01Zm-123.23-6.94c-2.46 2.75-6.65 9.85-8.6 15.8-3.9 11.79-2.21 23.77.55 24.5 3.22.83 8.5-14.93 11.03-21.1 1.58-3.86 7.74-21 6.4-23.28-1.06-1.8-5.43-.35-9.38 4.08Zm44.56 39.75s-.78.74-.44.94c.46.28 1.44-.08 2.51-.63 3.03-1.91 9.83-6.67 9.84-13.7 0-.21 0-.41-.02-.62a276.36 276.36 0 0 1-4.28 5.47c-2.14 2.67-7.6 8.54-7.6 8.54Z" fill="#8CC84B"/></symbol><symbol id="schedule" viewBox="0 0 491.9 491.9"><g style="enable-background:new 0 0 491.86 491.86"><path style="fill:#010002" d="M250 206H0v26h21v244h177V232h52z"/><path style="fill:#010002" d="M380 327c33 1 51-8 54-34l13-119c3-23-15-40-32-46h-1l-12-3h-12c-13 2-27 12-27 12-25 18-65 22-117 11a24 24 0 1 0-10 48c22 4 43 7 62 7 17 0 32-2 46-6v2l-8 76c-44 1-72 10-83 27-15 22-39 113-46 141a27 27 0 0 0 52 13c13-49 30-100 37-116 7-14 49-15 84-13z"/><circle style="fill:#010002" cx="395.9" cy="67.8" r="54.3"/><path style="fill:#010002" d="m485 275 7-94a2 2 0 0 0-2-2h-30l-2 2-6 94c-1 28-10 64-58 64h-54a2 2 0 0 0-2 2v29l2 2h49v66h-15c-20 0-37 18-37 38l2 2h19l2-2c0-7 6-14 14-14h63c7 0 14 7 14 14 0 1 0 2 2 2h19l2-2c0-20-17-38-37-38h-15v-70c47-1 58-49 63-93zm-281-98h-92L81 63l-2-1-17 5a1 1 0 0 0-1 2l35 127 2 1h106l1-1v-17l-1-2z"/></g></symbol><symbol id="selfeducation"><g fill="none"><path d="M432 24H128a16 16 0 0 0-16 16v384a16 16 0 0 0 16 16h304a16 16 0 0 0 16-16V40a16 16 0 0 0-16-16Z" fill="#4E89DE"/><path d="M416 56H144v352h272V56Z" fill="#91BCFB"/><path d="M197.68 261.68a19.35 19.35 0 0 0-27.36 0L112 320V192l-30.63 30.63A32.01 32.01 0 0 0 72 245.26V344l-56 80 64 72 48-80 16.3-8.15a48 48 0 0 0 25.87-50.82L168 344l32.91-59.24a19.35 19.35 0 0 0-3.23-23.08ZM384 96h-48v48h48V96Z" fill="#FCDCC8"/><path d="m309.66 114.34-24-24-11.32 11.32L284.7 112H248v16h36.69l-10.35 10.34 11.32 11.32 24-24a8 8 0 0 0 0-11.32Z" fill="#EFC8B4"/><path d="M200 144a24 24 0 1 0 0-48 24 24 0 0 0 0 48Z" fill="#FCDCC8"/><path d="M392 176H168v16h224v-16Zm0 40H168v16h224v-16ZM240 320h-40v16h40v-16Z" fill="#68A3F8"/><path d="M272 334.35A112 112 0 1 0 318.28 280L240 256l32 78.35Z" fill="#FCDCC8"/><path d="M240 360h-40v16h40v-16Z" fill="#68A3F8"/><path d="M344 312a16 16 0 0 0-16 16v96h96V312h-80Z" fill="#EFB465"/><path d="M344 408a16 16 0 0 0 0 32h80v-32h-80Z" fill="#D7A25B"/><path d="M400 344h-48v16h48v-16Z" fill="#F3C990"/></g></symbol><symbol id="semantic" preserveAspectRatio="xMidYMid"><path d="M0 0h256v256H0V0Z" fill="#34BDB2"/><path d="M168 87c-13-8-25-14-41-14-9 0-16 5-18 14s6 13 14 16l36 15c23 9 34 25 33 44-2 26-17 44-41 49-31 8-62-4-87-20 6-10 14-17 20-27 15 7 27 15 42 17 11 1 24 0 26-13 2-11-8-18-18-21l-35-14c-21-9-30-26-28-46 0-11 10-35 33-43 37-11 57 1 84 18l-20 25" fill="#FFF"/></symbol><symbol id="telegram"><g fill="none"><path fill-rule="evenodd" clip-rule="evenodd" d="M0 24a24 24 0 1 0 48 0 24 24 0 0 0-48 0Zm19.6 11 .4-6.12 11.14-10.04c.49-.43-.11-.65-.76-.25l-13.73 8.66-5.94-1.85c-1.28-.4-1.29-1.27.3-1.9l23.11-8.92c1.06-.48 2.08.25 1.67 1.87L31.86 35c-.28 1.32-1.08 1.64-2.18 1.03l-6-4.43-2.88 2.8-.03.03c-.32.31-.59.57-1.17.57Z" fill="#000"/></g></symbol><symbol id="tvshow" viewBox="0 0 48 48"><path fill="#F44336" d="M5 18h2v12.2l-2.3.3L2 23.7v7.1c.4 0-.2 0-2 .3v-13h2l3 7.3V18zm9.7 2v-2H9v12l5.7-.6v-2c-1.2.1-2.4.1-3.7.4V25h3v-2h-3v-3c.6.1 3.2.1 3.7 0zm1.3 0h2v9.2c.7 0 1.3 0 2-.1V20h2v-2h-6v2zm12.6-2H23v11h2v-4h2.7v-2H25v-3h3.6v-2zm3.4 9.5V18h-2v11.2c1.8.1 3.6.2 5.4.4v-1.9c-1.1-.1-2.3-.2-3.4-.2zm5 2.2c.7.1 1.3.1 2 .2V18h-2v11.7zm8.4-5.5c.9-2 1.7-4 2.6-6.1h-2.2c-.5 1.3-.9 2.2-1.4 3.4-.5-1.3-.8-2.2-1.3-3.4h-2.2c.8 2 1.5 4 2.4 6.1-.9 2-1.7 4-2.6 6l2.1.3c.5-1.3 1-2.2 1.5-3.5.5 1.4 1 2.4 1.5 3.8l2.3.3c-1-2.4-1.9-4.8-2.7-6.9z"/></symbol><symbol id="typescript"><path d="M0 0h640v640H0z" fill="#017acb"/><path d="M307.3 237H338v53h-83v235.8l-2.2.6c-3 .8-42.5.8-51-.1l-6.8-.6V290h-83v-53l26.3-.3c14.4-.2 51.4-.2 82.2 0s69.8.3 86.8.3zm234.3 263.8c-12.2 12.9-25.3 20.1-47.1 26-9.5 2.6-11.1 2.7-32.5 2.6s-23.1-.1-33.5-2.8c-26.9-6.9-48.6-20.4-63.4-39.5-4.2-5.4-11.1-16.6-11.1-18 0-.4 1-1.3 2.3-1.9s4-2.3 6.2-3.6 6.2-3.7 8.9-5.1 10.5-6 17.3-10.1 13-7.4 13.7-7.4 2 1.4 3 3.1c6 10.1 20 23 29.9 27.4 6.1 2.6 19.6 5.5 26.1 5.5 6 0 17-2.6 22.9-5.3 6.3-2.9 9.5-5.8 13.3-11.6 2.6-4.1 2.9-5.2 2.8-13 0-7.2-.4-9.2-2.4-12.5-5.6-9.2-13.2-14-44-27.6-31.8-14.1-46.1-22.5-57.7-33.8-8.6-8.4-10.3-10.7-15.7-21.2-7-13.5-7.9-17.9-8-38-.1-14.1.2-18.7 1.7-23.5 2.1-7.2 8.9-21.1 12-24.6 6.4-7.5 8.7-9.8 13.2-13.5 13.6-11.2 34.8-18.6 55.1-19.3 2.3 0 9.9.4 17 .9 20.4 1.7 34.3 6.7 47.7 17.4 10.1 8 25.4 26.8 23.9 29.3-1 1.5-40.9 28.1-43.5 28.9-1.6.5-2.7-.1-4.9-2.7-13.6-16.3-19.1-19.8-32.3-20.6-9.4-.6-14.4.5-20.7 4.7-6.6 4.4-9.8 11.1-9.8 20.4.1 13.6 5.3 20 24.5 29.5 12.4 6.1 23 11.1 23.8 11.1 1.2 0 26.9 12.8 33.6 16.8 31.2 18.3 43.9 37.1 47.2 69.5 2.4 24.4-4.5 46.7-19.5 62.5z" fill="#fff"/></symbol><symbol id="webpack"><path fill="#fff" d="m600 0 530.3 300v600L600 1200 69.7 900V300z"/><path fill="#8ed6fb" d="m1035.6 879.3-418.1 236.5V931.6L878 788.3l157.6 91zm28.6-25.9V358.8l-153 88.3V765l153 88.4zm-901.5 25.9 418.1 236.5V931.6L320.3 788.3l-157.6 91zm-28.6-25.9V358.8l153 88.3V765l-153 88.4zM152 326.8 580.8 84.2v178.1L306.1 413.4l-2.1 1.2-152-87.8zm894.3 0L617.5 84.2v178.1l274.7 151.1 2.1 1.2 152-87.8z"/><path fill="#1c78c0" d="m580.8 889.7-257-141.3v-280l257 148.4v272.9m36.7 0 257-141.3v-280l-257 148.4v272.9M341.2 436l258-141.9 258 141.9-258 149-258-149"/></symbol></svg>